<svg width="329" height="173" viewBox="0 0 329 173" fill="none" xmlns="http://www.w3.org/2000/svg">
<path d="M202.891 116.403H126.719C125.43 116.403 124.375 115.433 124.375 114.247C124.375 113.061 125.43 112.091 126.719 112.091H202.891C204.18 112.091 205.234 113.061 205.234 114.247C205.234 115.433 204.18 116.403 202.891 116.403Z" fill="#EE8282"/>
<path d="M139.217 132.596V116.065H134.53V132.596H139.217Z" fill="#EE8282"/>
<path d="M194.686 132.596V116.065H189.998V132.596H194.686Z" fill="#EE8282"/>
<path d="M28.4766 159.708V85.7484H60.6641V32.489H115.586V159.708H28.4766Z" fill="#FFE4E1"/>
<path d="M77.3828 41.2937H66.1328V49.5593H77.3828V41.2937Z" fill="#EEABAB"/>
<path d="M94.2578 41.2937H83.0078V49.5593H94.2578V41.2937Z" fill="#EEABAB"/>
<path d="M111.133 41.2937H99.8828V49.5593H111.133V41.2937Z" fill="#EEABAB"/>
<path d="M77.3828 54.2312H66.1328V62.4968H77.3828V54.2312Z" fill="#EEABAB"/>
<path d="M94.2578 54.2312H83.0078V62.4968H94.2578V54.2312Z" fill="#EEABAB"/>
<path d="M111.133 54.2312H99.8828V62.4968H111.133V54.2312Z" fill="#EEABAB"/>
<path d="M77.3828 67.1328H66.1328V75.3984H77.3828V67.1328Z" fill="#EEABAB"/>
<path d="M94.2578 67.1328H83.0078V75.3984H94.2578V67.1328Z" fill="#EEABAB"/>
<path d="M111.133 67.1328H99.8828V75.3984H111.133V67.1328Z" fill="#EEABAB"/>
<path d="M77.3828 80.0703H66.1328V88.3359H77.3828V80.0703Z" fill="#EEABAB"/>
<path d="M94.2578 80.0703H83.0078V88.3359H94.2578V80.0703Z" fill="#EEABAB"/>
<path d="M111.133 80.0703H99.8828V88.3359H111.133V80.0703Z" fill="#EEABAB"/>
<path d="M77.3828 93.0078H66.1328V101.273H77.3828V93.0078Z" fill="#EEABAB"/>
<path d="M60.5078 93.0078H49.2578V101.273H60.5078V93.0078Z" fill="#EEABAB"/>
<path d="M43.6719 93.0078H32.4219V101.273H43.6719V93.0078Z" fill="#EEABAB"/>
<path d="M94.2578 93.0078H83.0078V101.273H94.2578V93.0078Z" fill="#EEABAB"/>
<path d="M111.133 93.0078H99.8828V101.273H111.133V93.0078Z" fill="#EEABAB"/>
<path d="M77.3828 105.945H66.1328V114.211H77.3828V105.945Z" fill="#EEABAB"/>
<path d="M60.5078 105.945H49.2578V114.211H60.5078V105.945Z" fill="#EEABAB"/>
<path d="M43.6719 105.945H32.4219V114.211H43.6719V105.945Z" fill="#EEABAB"/>
<path d="M94.2578 105.945H83.0078V114.211H94.2578V105.945Z" fill="#EEABAB"/>
<path d="M111.133 105.945H99.8828V114.211H111.133V105.945Z" fill="#EEABAB"/>
<path d="M77.3828 118.847H66.1328V127.112H77.3828V118.847Z" fill="#EEABAB"/>
<path d="M60.5078 118.847H49.2578V127.112H60.5078V118.847Z" fill="#EEABAB"/>
<path d="M43.6719 118.847H32.4219V127.112H43.6719V118.847Z" fill="#EEABAB"/>
<path d="M94.2578 118.847H83.0078V127.112H94.2578V118.847Z" fill="#EEABAB"/>
<path d="M111.133 118.847H99.8828V127.112H111.133V118.847Z" fill="#EEABAB"/>
<path d="M77.3828 131.784H66.1328V140.05H77.3828V131.784Z" fill="#EEABAB"/>
<path d="M60.5078 131.784H49.2578V140.05H60.5078V131.784Z" fill="#EEABAB"/>
<path d="M43.6719 131.784H32.4219V140.05H43.6719V131.784Z" fill="#EEABAB"/>
<path d="M94.2578 131.784H83.0078V140.05H94.2578V131.784Z" fill="#EEABAB"/>
<path d="M111.133 131.784H99.8828V140.05H111.133V131.784Z" fill="#EEABAB"/>
<path d="M212.852 158.701V112.127H237.578V58.364H275.273V83.6999H297.188V158.701H212.852Z" fill="#FFE4E1"/>
<path d="M254.453 65.0844H243.203V73.35H254.453V65.0844Z" fill="#EEABAB"/>
<path d="M270.195 65.0844H258.945V73.35H270.195V65.0844Z" fill="#EEABAB"/>
<path d="M254.453 116.798H243.203V125.064H254.453V116.798Z" fill="#EEABAB"/>
<path d="M238.711 116.798H227.461V125.064H238.711V116.798Z" fill="#EEABAB"/>
<path d="M238.711 129.736H227.461V138.002H238.711V129.736Z" fill="#EEABAB"/>
<path d="M270.195 116.798H258.945V125.064H270.195V116.798Z" fill="#EEABAB"/>
<path d="M254.453 78.0219H243.203V86.2875H254.453V78.0219Z" fill="#EEABAB"/>
<path d="M270.195 78.0219H258.945V86.2875H270.195V78.0219Z" fill="#EEABAB"/>
<path d="M254.453 90.9235H243.203V99.1891H254.453V90.9235Z" fill="#EEABAB"/>
<path d="M270.195 90.9235H258.945V99.1891H270.195V90.9235Z" fill="#EEABAB"/>
<path d="M285.937 90.9235H274.688V99.1891H285.937V90.9235Z" fill="#EEABAB"/>
<path d="M285.937 103.861H274.688V112.127H285.937V103.861Z" fill="#EEABAB"/>
<path d="M285.937 116.798H274.688V125.064H285.937V116.798Z" fill="#EEABAB"/>
<path d="M285.937 129.736H274.688V138.002H285.937V129.736Z" fill="#EEABAB"/>
<path d="M254.453 103.861H243.203V112.127H254.453V103.861Z" fill="#EEABAB"/>
<path d="M270.195 103.861H258.945V112.127H270.195V103.861Z" fill="#EEABAB"/>
<path d="M254.453 129.736H243.203V138.002H254.453V129.736Z" fill="#EEABAB"/>
<path d="M270.195 129.736H258.945V138.002H270.195V129.736Z" fill="#EEABAB"/>
<path d="M0.9375 172.142C0.9375 172.142 65.0391 125.064 161.719 125.064C252.773 125.064 328.672 172.142 328.672 172.142C328.672 172.142 303.086 163.266 248.828 162.331C219.023 161.828 197.109 171.136 160.586 171.136C126.289 171.136 102.07 166.787 65.5859 165.458C31.7578 164.164 0.9375 172.142 0.9375 172.142Z" fill="url(#paint0_linear_258_1773)"/>
<path d="M132.461 126.502C130.313 127.867 129.102 129.412 129.102 130.994C129.102 137.139 146.602 142.098 168.164 142.098C189.727 142.098 207.227 137.103 207.227 130.994C207.227 130.203 206.914 129.412 206.328 128.622C192.07 126.394 177.109 125.028 161.68 125.028C151.562 125.064 141.797 125.603 132.461 126.502Z" fill="url(#paint1_linear_258_1773)"/>
<path d="M100.221 155.838C109.909 153.224 116.986 148.666 116.026 145.656C115.067 142.647 106.436 142.327 96.747 144.941C87.0585 147.554 79.9819 152.113 80.9411 155.122C81.9003 158.131 90.532 158.452 100.221 155.838Z" fill="#F88585"/>
<path d="M194.336 161.113C195.105 158.797 190.678 155.5 184.447 153.748C178.217 151.996 172.542 152.452 171.773 154.768C171.004 157.084 175.431 160.381 181.661 162.133C187.892 163.885 193.566 163.428 194.336 161.113Z" fill="#F88585"/>
<path d="M257.656 127.939C259.57 126.106 260.547 123.698 260.156 121.255C259.687 118.308 257.383 116.008 254.219 114.858C254.297 114.211 254.297 113.528 254.141 112.845C253.398 109.575 249.922 107.455 246.406 108.137C242.891 108.82 240.625 112.019 241.367 115.289C241.445 115.72 241.602 116.116 241.797 116.475C239.102 118.416 237.539 121.291 238.008 124.237C238.242 125.603 238.828 126.825 239.766 127.867C237.734 129.089 236.484 130.742 236.484 132.539C236.484 136.312 241.953 139.367 248.672 139.367C255.391 139.367 260.859 136.312 260.859 132.539C260.859 130.778 259.648 129.161 257.656 127.939Z" fill="url(#paint2_linear_258_1773)"/>
<path d="M248.398 148.891C248.047 148.711 247.812 147.992 247.93 147.345C249.648 134.552 248.437 127.652 247.852 125.316C247.695 124.741 247.812 124.094 248.086 123.734C248.437 123.267 248.906 123.483 249.102 124.237C249.805 127.112 251.094 134.623 249.258 147.992C249.18 148.675 248.789 149.106 248.398 148.891Z" fill="#FF7F2A"/>
<path d="M279.492 144.722C280.586 143.68 281.133 142.314 280.937 140.912C280.664 139.223 279.336 137.93 277.539 137.247C277.578 136.887 277.578 136.492 277.5 136.097C277.07 134.228 275.078 133.042 273.086 133.402C271.055 133.797 269.805 135.63 270.234 137.498C270.273 137.75 270.352 137.966 270.469 138.181C268.906 139.295 268.047 140.912 268.32 142.602C268.438 143.392 268.789 144.075 269.336 144.686C268.164 145.369 267.461 146.303 267.461 147.345C267.461 149.502 270.586 151.227 274.414 151.227C278.242 151.227 281.367 149.466 281.367 147.345C281.289 146.339 280.625 145.405 279.492 144.722Z" fill="url(#paint3_linear_258_1773)"/>
<path d="M274.219 156.689C274.023 156.581 273.906 156.186 273.945 155.791C274.922 148.495 274.258 144.578 273.906 143.212C273.828 142.889 273.867 142.53 274.023 142.314C274.219 142.027 274.492 142.17 274.609 142.602C275 144.219 275.742 148.531 274.688 156.15C274.648 156.545 274.414 156.797 274.219 156.689Z" fill="#FF7F2A"/>
<path d="M244.844 100.662H84.7656C82.5781 100.662 80.8203 99.0453 80.8203 97.0328V3.66717C80.8203 1.65467 82.5781 0.0374756 84.7656 0.0374756H244.844C247.031 0.0374756 248.789 1.65467 248.789 3.66717V97.0328C248.789 99.0453 246.992 100.662 244.844 100.662Z" fill="#F88585"/>
<path d="M248.789 18.0062H80.8203V3.63123C80.8203 1.65466 82.5781 0.0374756 84.7266 0.0374756H244.883C247.031 0.0374756 248.789 1.65466 248.789 3.63123V18.0062Z" fill="#C07B92"/>
<path d="M97.2266 12.2562H91.7578C90.0391 12.2562 88.6328 10.9625 88.6328 9.38123C88.6328 7.79998 90.0391 6.50623 91.7578 6.50623H97.2266C98.9453 6.50623 100.352 7.79998 100.352 9.38123C100.352 10.9625 98.9453 12.2562 97.2266 12.2562Z" fill="white"/>
<path d="M212.852 12.2562H107.383C105.664 12.2562 104.258 10.9625 104.258 9.38123C104.258 7.79998 105.664 6.50623 107.383 6.50623H212.891C214.609 6.50623 216.016 7.79998 216.016 9.38123C215.977 10.9625 214.609 12.2562 212.852 12.2562Z" fill="white"/>
<path d="M232.344 5.06873C233.422 5.06873 234.297 4.26424 234.297 3.27185C234.297 2.27946 233.422 1.47498 232.344 1.47498C231.265 1.47498 230.391 2.27946 230.391 3.27185C230.391 4.26424 231.265 5.06873 232.344 5.06873Z" fill="white"/>
<path d="M238.594 5.06873C239.672 5.06873 240.547 4.26424 240.547 3.27185C240.547 2.27946 239.672 1.47498 238.594 1.47498C237.515 1.47498 236.641 2.27946 236.641 3.27185C236.641 4.26424 237.515 5.06873 238.594 5.06873Z" fill="white"/>
<path d="M244.844 5.06873C245.922 5.06873 246.797 4.26424 246.797 3.27185C246.797 2.27946 245.922 1.47498 244.844 1.47498C243.765 1.47498 242.891 2.27946 242.891 3.27185C242.891 4.26424 243.765 5.06873 244.844 5.06873Z" fill="white"/>
<path d="M145.43 69.5406H140.078V80.25H131.758V69.5406H112.617V63.9703L129.375 38.9578H140.078V63.3234H145.43V69.5406ZM131.758 63.2874V54.8421C131.758 52.4343 131.992 48.6968 132.109 46.289H131.875C130.781 48.4812 129.57 50.7453 128.281 53.0093L121.289 63.2874H131.758Z" fill="#C07B92"/>
<path d="M149.805 59.4421C149.805 45.139 155.859 38.1671 165.039 38.1671C174.141 38.1671 180.234 45.2109 180.234 59.4421C180.234 73.6734 174.18 81.0406 165.039 81.0406C155.859 81.0406 149.805 73.6734 149.805 59.4421ZM171.758 59.4421C171.758 47.8702 168.828 44.5281 165 44.5281C161.133 44.5281 158.203 47.8702 158.203 59.4421C158.203 71.0499 161.133 74.6437 165 74.6437C168.867 74.6077 171.758 71.0499 171.758 59.4421Z" fill="#C07B92"/>
<path d="M216.953 69.5406H211.602V80.25H203.281V69.5406H184.141V63.9703L200.898 38.9578H211.602V63.3234H216.953V69.5406ZM203.281 63.2874V54.8421C203.281 52.4343 203.516 48.6968 203.633 46.289H203.398C202.305 48.4812 201.094 50.7453 199.805 53.0093L192.813 63.2874H203.281Z" fill="#C07B92"/>
<path d="M145.352 67.2405H140V77.9499H131.68V67.2405H112.539V61.6702L129.297 36.6577H140V61.0233H145.352V67.2405ZM131.68 60.9874V52.5421C131.68 50.1343 131.914 46.3968 132.031 43.989H131.797C130.703 46.1812 129.492 48.4452 128.203 50.7093L121.25 60.9874H131.68Z" fill="white"/>
<path d="M149.727 57.1062C149.727 42.8031 155.781 35.8312 164.961 35.8312C174.062 35.8312 180.156 42.8749 180.156 57.1062C180.156 71.3374 174.102 78.7046 164.961 78.7046C155.781 78.7406 149.727 71.3734 149.727 57.1062ZM171.68 57.1062C171.68 45.5343 168.75 42.1921 164.922 42.1921C161.055 42.1921 158.125 45.5343 158.125 57.1062C158.125 68.714 161.055 72.3077 164.922 72.3077C168.789 72.3077 171.68 68.7499 171.68 57.1062Z" fill="white"/>
<path d="M216.875 67.2405H211.523V77.9499H203.203V67.2405H184.062V61.6702L200.82 36.6577H211.523V61.0233H216.875V67.2405ZM203.203 60.9874V52.5421C203.203 50.1343 203.438 46.3968 203.555 43.989H203.32C202.227 46.1812 201.016 48.4452 199.727 50.7093L192.734 60.9874H203.203Z" fill="white"/>
<path d="M213.711 33.1719C213.281 33.0281 212.852 33.2438 212.695 33.6391C212.539 34.0344 212.734 34.4297 213.125 34.5734C213.555 34.7172 213.984 34.5016 214.141 34.1063C214.336 33.7109 214.141 33.3156 213.711 33.1719Z" fill="#C07B92"/>
<path d="M216.641 30.7999C216.992 29.8656 216.484 29.1828 215.547 28.8593C214.844 28.6437 214.18 28.7515 213.594 29.039L214.023 29.7937C214.375 29.6499 214.727 29.5781 215.078 29.6859C215.508 29.8296 215.664 30.1531 215.508 30.5124C215.234 31.1953 213.711 31.2312 213.438 32.4531L214.453 32.7765C214.727 31.7343 216.25 31.8421 216.641 30.7999Z" fill="#C07B92"/>
<path d="M221.758 33.675C221.367 33.1 220.742 32.8125 220.078 32.7406L219.922 33.5672C220.312 33.639 220.625 33.7469 220.82 34.0344C221.055 34.3578 220.977 34.7172 220.625 34.9328C219.961 35.3281 218.711 34.5015 217.695 35.364L218.281 36.1906C219.219 35.5078 220.352 36.4062 221.367 35.8312C222.266 35.2922 222.305 34.4656 221.758 33.675Z" fill="#C07B92"/>
<path d="M216.367 35.9391C215.977 36.1547 215.859 36.5859 216.094 36.9453C216.328 37.3047 216.797 37.3765 217.188 37.125C217.578 36.9094 217.695 36.4781 217.422 36.1187C217.227 35.7953 216.758 35.7234 216.367 35.9391Z" fill="#C07B92"/>
<path d="M208.008 32.8484C207.578 32.9203 207.344 33.3156 207.422 33.7469C207.539 34.1422 207.93 34.3937 208.359 34.3219C208.789 34.25 209.023 33.8547 208.945 33.4234C208.828 33.0281 208.437 32.7765 208.008 32.8484Z" fill="#C07B92"/>
<path d="M207.031 28.3203C206.328 28.464 205.82 28.8953 205.469 29.4344L206.289 29.8656C206.484 29.5781 206.758 29.3265 207.109 29.2547C207.539 29.1828 207.852 29.3625 207.969 29.7219C208.164 30.4406 206.875 31.2312 207.344 32.4172L208.398 32.2015C208.008 31.1594 209.375 30.5125 209.102 29.4344C208.867 28.4281 208.008 28.1047 207.031 28.3203Z" fill="#C07B92"/>
<path d="M213.711 32.7047C213.281 32.561 212.852 32.7766 212.695 33.1719C212.539 33.5672 212.734 33.9625 213.125 34.1063C213.555 34.25 213.984 34.0344 214.141 33.6391C214.336 33.2797 214.141 32.8485 213.711 32.7047Z" fill="#EFBB81"/>
<path d="M216.641 30.3688C216.992 29.4344 216.484 28.7516 215.547 28.4282C214.844 28.2125 214.18 28.3204 213.594 28.6079L214.023 29.3625C214.375 29.2188 214.727 29.1469 215.078 29.2547C215.508 29.3985 215.664 29.7219 215.508 30.0813C215.234 30.7641 213.711 30.8 213.438 32.0219L214.453 32.3454C214.727 31.2672 216.25 31.375 216.641 30.3688Z" fill="#EFBB81"/>
<path d="M221.758 33.2437C221.367 32.6687 220.742 32.3812 220.078 32.3093L219.922 33.1359C220.312 33.2078 220.625 33.3156 220.82 33.6031C221.055 33.9265 220.977 34.2859 220.625 34.5015C219.961 34.8968 218.711 34.0703 217.695 34.9328L218.281 35.7593C219.219 35.0765 220.352 35.975 221.367 35.4C222.266 34.825 222.305 33.9984 221.758 33.2437Z" fill="#EFBB81"/>
<path d="M216.367 35.4719C215.977 35.6875 215.859 36.1188 216.094 36.4781C216.328 36.8375 216.797 36.9094 217.188 36.6578C217.578 36.4422 217.695 36.0109 217.422 35.6516C217.227 35.3281 216.758 35.2563 216.367 35.4719Z" fill="#EFBB81"/>
<path d="M208.008 32.3813C207.578 32.4531 207.344 32.8484 207.422 33.2797C207.539 33.675 207.93 33.9266 208.359 33.8547C208.789 33.7828 209.023 33.3875 208.945 32.9563C208.828 32.5609 208.437 32.3094 208.008 32.3813Z" fill="#EFBB81"/>
<path d="M207.031 27.8531C206.328 27.9969 205.82 28.4281 205.469 28.9672L206.289 29.3984C206.484 29.1109 206.758 28.8594 207.109 28.7875C207.539 28.7156 207.852 28.8953 207.969 29.2547C208.164 29.9734 206.875 30.7641 207.344 31.95L208.398 31.7344C208.008 30.6922 209.375 30.0453 209.102 28.9672C208.867 27.9609 208.008 27.6375 207.031 27.8531Z" fill="#EFBB81"/>
<path d="M179.648 109.144H149.922C149.492 109.144 149.141 108.82 149.141 108.425V93.2953C149.141 92.9 149.492 92.5765 149.922 92.5765H179.648C180.078 92.5765 180.43 92.9 180.43 93.2953V108.425C180.43 108.82 180.078 109.144 179.648 109.144Z" fill="#353535"/>
<path d="M179.648 93.6907H149.961V108.066H179.648V93.6907Z" fill="white"/>
<path d="M163.711 103.214H167.227V108.748H163.398L163.711 103.214Z" fill="#FDCACA"/>
<path d="M160.937 99.8359C160.937 99.8359 160 99.7281 159.922 100.303C159.805 100.878 160.117 102.1 160.352 102.28C160.742 102.675 161.602 101.92 161.602 101.92L160.937 99.8359Z" fill="#FDCACA"/>
<path d="M168.32 101.956C168.32 101.956 169.336 102.531 169.766 102.244C170.195 101.956 170.469 101.022 170.469 100.627C170.469 100.231 170.586 99.8719 170.039 99.8719C169.492 99.8719 169.219 99.7641 169.102 99.8719C168.984 99.9797 168.32 101.956 168.32 101.956Z" fill="#FDCACA"/>
<path d="M156.68 124.022C156.68 124.022 151.914 121.83 150.078 123.087C148.203 124.309 147.812 124.705 147.617 125.459C147.422 126.214 149.687 131.641 150.508 132.575C151.328 133.509 153.398 135.63 153.828 136.959C154.258 138.289 155.703 142.566 157.969 142.853C160.234 143.141 169.609 144.362 171.68 143.32C173.75 142.278 174.883 140.769 175.195 140.194C175.508 139.619 175.703 138.217 176.641 136.959C177.578 135.737 179.414 133.437 179.961 132.323C180.469 131.173 181.406 128.155 181.406 127.4C181.406 126.645 179.844 124.561 179.258 124.166C178.633 123.77 175.742 125.1 175.352 125.675C174.961 126.25 156.68 126.25 156.68 126.25V124.022Z" fill="#464646"/>
<path d="M170.625 91.3547C168.906 88.7672 165.508 91.4984 165.273 91.714C165.039 91.9297 163.867 90.8515 161.211 92.1812C159.414 93.0796 159.453 93.6546 159.219 96.6015C158.984 99.5484 160.43 100.052 160.43 100.052C160.43 100.052 160.625 100.052 160.938 100.087C160.938 100.698 160.938 101.381 160.977 101.848C160.977 101.848 161.133 103.537 162.461 104.472C163.438 105.119 164.023 105.298 164.883 105.37C166.055 105.442 167.461 105.119 168.438 103.717C168.711 103.322 168.789 102.387 168.789 102.387L169.336 99.8C170.625 99.3687 172.344 93.9062 170.625 91.3547Z" fill="#63393F"/>
<path d="M181.875 122.62C181.367 121.003 180 117.337 180 117.337C179.531 115.648 178.281 113.384 178.125 113.205C177.93 112.917 177.07 110.33 175.82 109.862C173.438 108.964 171.211 108.173 170.586 107.419C169.961 106.664 168.555 105.981 168.555 105.981C168.555 105.981 166.445 106.341 164.688 106.233C163.008 106.125 162.422 105.766 162.031 105.909C161.914 105.945 161.445 106.844 160.625 107.239C159.805 107.634 158.984 107.059 153.594 110.366C153.594 110.366 152.266 110.833 151.211 113.672C150.937 114.462 150.781 115.037 150.664 115.433C150.664 115.433 148.906 120.716 148.398 122.297C148.125 123.123 148.437 123.626 148.789 123.914C149.102 123.662 149.531 123.375 150.039 123.051C151.367 122.189 154.102 123.016 155.625 123.591C155.625 124.992 156.133 126.717 154.805 129.233C153.477 131.784 154.375 137.858 155.625 139.403C156.875 140.912 158.633 142.242 159.023 142.242C159.023 142.242 167.266 143.176 169.844 142.637C172.422 142.062 174.375 138.073 174.687 137.498C175 136.923 176.836 133.797 176.133 132.072C175.43 130.347 174.18 129.592 174.18 129.592C174.18 129.592 174.375 127.831 174.57 125.747C174.922 125.711 175.156 125.639 175.195 125.603C175.625 125.028 178.516 123.698 179.102 124.094C179.297 124.201 179.531 124.453 179.844 124.812L180.742 124.597C180.781 124.597 182.383 124.237 181.875 122.62ZM154.883 119.242C155 119.673 155.352 120.895 155.508 122.117L153.945 121.362L154.883 119.242ZM175 122.333C175.156 120.787 175.273 119.53 175.273 119.386C175.273 119.314 175.273 119.278 175.313 119.278L176.367 121.686L175 122.333Z" fill="#DBEEFE"/>
<path d="M165.117 107.598C165.117 107.598 167.383 107.634 168.32 107.383C169.258 107.131 169.844 106.736 169.844 106.736L168.594 106.017C168.594 106.017 166.797 106.305 165.391 106.269C163.984 106.269 162.07 105.766 162.07 105.837C162.07 105.909 161.016 106.952 161.016 106.952C161.016 106.952 163.75 107.562 165.117 107.598Z" fill="#B9D8ED"/>
<path d="M153.789 123.878L155.742 126.034V125.459L155.703 124.561L153.789 123.878Z" fill="#173872"/>
<path d="M174.531 126.933L175.703 126.214L174.453 127.651L174.531 126.933Z" fill="#173872"/>
<path d="M154.062 121.075L152.344 121.83L154.57 121.65L153.984 121.362L154.062 121.075Z" fill="#B9D8ED"/>
<path d="M176.094 121.075L177.656 121.866H175.898L176.328 121.65L176.094 121.075Z" fill="#B9D8ED"/>
<path d="M154.805 119.494L154.883 119.242L154.961 119.494L154.805 116.331V119.494Z" fill="#B9D8ED"/>
<path d="M175.234 119.709L175 115.145L175.508 119.817L175.273 119.278L175.234 119.709Z" fill="#B9D8ED"/>
<defs>
<linearGradient id="paint0_linear_258_1773" x1="161.584" y1="125.622" x2="164.349" y2="172.98" gradientUnits="userSpaceOnUse">
<stop stop-color="#F88585"/>
<stop offset="0.4022" stop-color="#FDCACA"/>
<stop offset="0.7939" stop-color="#EE8282"/>
</linearGradient>
<linearGradient id="paint1_linear_258_1773" x1="167.719" y1="124.549" x2="169.037" y2="147.12" gradientUnits="userSpaceOnUse">
<stop stop-color="#FFE4E1"/>
<stop offset="0.2484" stop-color="#FDCACA"/>
<stop offset="0.7939" stop-color="#F88585"/>
</linearGradient>
<linearGradient id="paint2_linear_258_1773" x1="255.405" y1="135.607" x2="242.492" y2="116.507" gradientUnits="userSpaceOnUse">
<stop stop-color="#EFBB81"/>
<stop offset="0.5011" stop-color="#F79E57"/>
<stop offset="1" stop-color="#FF7F2A"/>
</linearGradient>
<linearGradient id="paint3_linear_258_1773" x1="278.19" y1="149.094" x2="270.823" y2="138.197" gradientUnits="userSpaceOnUse">
<stop stop-color="#EFBB81"/>
<stop offset="0.5011" stop-color="#F79E57"/>
<stop offset="1" stop-color="#FF7F2A"/>
</linearGradient>
</defs>
</svg>
