<svg width="129" height="51" viewBox="0 0 129 51" fill="none" xmlns="http://www.w3.org/2000/svg">
<g clip-path="url(#clip0_1204_1842)">
<g clip-path="url(#clip1_1204_1842)">
<path d="M105.351 11.4421C105.355 11.7574 104.952 11.6795 104.797 11.7317C104.089 11.9701 103.452 12.3671 102.75 12.5934C101.41 13.0255 100.164 13.6749 98.8198 14.1057C97.8221 14.4256 96.8812 14.9203 95.8719 15.2298C95.5348 15.3331 95.2658 15.5628 94.8707 15.5855C94.5265 15.6052 94.3327 15.9209 94.3915 16.3C94.2689 16.2795 94.1919 16.3338 94.1654 16.4462C94.1611 16.4651 94.2206 16.5228 94.2402 16.5186C94.3564 16.4932 94.4128 16.4186 94.3915 16.3C95.636 16.3192 96.8459 15.864 98.1018 16.0533C98.5981 15.6333 99.3074 15.9983 99.8248 15.6136C99.9346 15.5318 100.144 15.5653 100.307 15.5631C100.731 15.5572 101.247 15.708 101.557 15.5259C101.997 15.2668 102.297 15.5783 102.638 15.5983C103.283 15.6363 103.8 15.2478 104.444 15.2865C105.034 15.322 105.695 15.535 106.252 15.0768C106.326 15.0162 106.499 15.0714 106.626 15.0679C107.236 15.0514 107.846 15.1399 108.439 14.8417C108.693 14.714 109.062 14.7941 109.321 15.0226C109.522 14.7051 109.858 14.7963 110.123 14.8348C110.721 14.9213 111.192 14.4628 111.803 14.5585C112.34 14.6425 112.904 14.5969 113.453 14.5641C113.632 14.5533 113.802 14.4025 113.947 14.3302C114.242 14.3155 114.331 14.728 114.642 14.5757C115.506 14.1508 116.434 14.3729 117.335 14.3394C117.604 14.3293 117.808 14.2536 118.005 13.9992C118.418 14.4261 118.927 14.3014 119.412 14.3362C119.796 14.3635 120.023 13.966 120.457 14.0626C120.79 14.1365 121.197 14.2001 121.51 13.8541C121.575 13.7826 121.88 13.804 122.094 13.9184C122.671 14.2272 123.264 14.2102 123.857 13.8302C124.135 13.7722 124.266 14.2124 124.61 14.0887C124.889 13.9886 125.11 14.2176 125.363 14.2834L125.472 13.8716C126.493 14.3369 127.5 14.7995 128.481 15.4702V16.1785L128.923 16.6064C129.196 17.2008 128.648 17.6265 128.726 18.1167L127.848 19.0082C126.987 19.0471 126.293 18.655 125.546 18.3304L124.961 18.5983C124.815 18.7844 125.049 19.0806 124.8 19.2514C124.573 19.162 124.768 18.8524 124.496 18.7753L124.333 19.2214L123.985 19.0491C123.677 19.524 124.25 19.5164 124.279 19.7286C124.598 19.7801 124.661 19.5886 124.793 19.5028C125.038 19.7816 125.427 19.8062 125.716 20.0037C125.988 19.703 126.371 20.0273 126.649 19.822C126.919 20.1851 127.381 19.8375 127.68 20.0796C127.882 20.4707 127.144 20.663 127.642 21.1749C126.973 21.1497 126.564 21.3688 126.28 21.7745C125.363 21.478 124.501 21.2205 123.64 21.7161C123.172 21.34 122.525 21.3262 122.116 21.5202C121.719 21.7082 121.379 21.4378 121.095 21.6178C120.684 21.8785 120.423 21.5589 120.092 21.4807C119.852 21.424 119.531 21.3784 119.342 21.4861C118.675 21.8662 117.962 21.6419 117.276 21.7203C116.799 21.7748 116.266 21.5266 115.849 21.9567C115.809 21.9976 115.66 21.9958 115.604 21.9569C114.948 21.499 114.302 21.9086 113.648 21.9512C112.931 21.9981 112.176 21.8322 111.494 21.9909C110.338 22.2603 109.158 22.0377 108.04 22.2522C107.129 22.4272 106.214 22.2995 105.346 22.4851C104.357 22.6965 103.348 22.545 102.402 22.7436C101.575 22.9171 100.707 22.7377 99.9712 22.9933C99.1703 23.2713 98.3837 23.0056 97.6503 23.2166C96.7912 23.4636 95.9161 23.313 95.085 23.4746C94.3927 23.6092 93.642 23.5698 93.0295 23.9585L92.6611 23.6284C92.1788 24.2118 91.4154 23.7137 90.8499 24.0563C90.6448 24.1808 90.4617 24.1793 90.2632 24.1744C88.9993 24.1425 87.7383 24.3046 86.5267 24.6547C86.1758 24.7553 85.7665 24.6937 85.3872 24.6653C84.5162 24.6 83.6965 24.7952 82.8957 25.0895C82.4047 25.2699 81.8126 24.9857 81.3789 25.4087C80.4146 25.2285 79.5026 25.6039 78.5612 25.679C77.5725 25.7582 76.5967 26.016 75.6245 26.2341C75.4905 26.2642 75.368 26.3864 75.1877 26.4014C74.7502 26.4379 74.3223 26.3016 73.8698 26.6065C73.5535 26.8194 72.9695 26.501 72.5999 26.8857C71.4977 26.6373 70.581 27.4871 69.5043 27.3747C69.2295 27.3461 69.1176 27.6143 68.8527 27.6592C68.6529 27.6929 68.4601 27.8881 68.1884 27.8748C66.7924 27.8063 65.5097 28.331 64.2075 28.6808C63.082 28.9832 61.908 29.1981 60.8783 29.8184C60.637 29.9639 60.2229 29.8399 60.1499 29.8399C58.687 30.4169 57.4276 30.7466 56.0644 30.8674C55.6685 31.3266 55.0118 31.2635 54.4522 31.4313C52.8723 31.9059 51.2902 32.3737 49.7059 32.8347C49.0619 33.0218 48.4164 33.3789 47.7841 33.6853C47.2274 33.9549 46.6657 34.3382 46.004 34.2544C45.6541 34.21 45.4391 34.4281 45.2303 34.5412C43.1995 35.6425 40.9142 36.1588 38.8533 37.1814C38.16 37.0187 37.7492 37.5752 37.2102 37.7988C36.7068 38.0075 36.1968 38.2062 35.6988 38.4307C34.6007 38.9254 33.4356 39.281 32.294 39.6835C32.1476 39.7353 31.9808 39.6542 31.8273 39.7873C30.9774 40.5225 29.8374 40.694 28.8385 41.1214C27.8774 41.5325 26.8656 41.8522 25.9125 42.3067C25.5682 42.4708 25.1716 42.5317 24.8101 42.6364L24.6064 42.4395C24.5513 42.4651 24.4427 42.4915 24.4422 42.5198C24.4341 42.9135 24.191 43.0884 23.829 43.1321C23.1413 43.2151 22.6064 43.644 21.985 43.8771C21.4008 44.0963 20.8135 44.2915 20.2435 44.5675C19.1968 45.0745 18.0726 45.4336 16.973 45.8346C16.8286 45.8873 16.6651 45.8526 16.5243 45.9812C15.9159 46.537 15.1539 46.7268 14.347 46.837C13.8421 46.906 13.519 47.5268 12.9032 47.3203C12.4029 47.9818 11.5674 47.9628 10.881 48.2413C10.2309 48.505 9.55795 48.7165 8.89236 48.943C8.18965 49.1821 7.48618 49.4012 6.79669 49.6947C5.86746 50.0906 4.83552 50.2638 3.84272 50.5142C3.65052 50.5628 3.47001 50.5658 3.26917 50.6668C2.54053 51.034 2.52604 51.0069 1.62146 50.9934L1.07384 49.6255C1.27443 49.4936 1.58689 49.4665 1.77477 49.1683C0.99528 48.9312 0.898416 47.9478 0.106979 47.8154C-0.136834 47.3301 0.0657925 47.008 0.413842 46.8387C1.44096 46.3393 2.42129 45.7705 3.40137 45.1915C3.78171 44.967 4.28306 44.9098 4.69314 44.6515C5.6178 44.0689 6.68864 43.7517 7.61711 43.1555C7.98982 42.9162 8.40982 42.6833 8.9155 42.6199C9.38558 42.561 9.72422 42.1361 10.1384 41.9222C10.8957 41.5308 11.7599 41.3245 12.4949 40.903C13.9239 40.0833 15.5376 39.6729 16.9829 38.9015C17.4695 38.6417 17.9872 38.4601 18.5226 38.4396L18.6288 38.0448C18.7023 38.0181 18.7738 37.9826 18.8495 37.9669C19.0875 37.9178 19.326 38.0181 19.5771 37.8796C20.3269 37.4661 21.0975 37.0865 21.923 36.8265C22.2243 36.7316 22.4726 36.5832 22.5354 36.2566L22.8609 36.5381C23.4591 36.2027 23.9607 35.5653 24.7646 35.7677C24.8231 35.7265 24.8739 35.7095 24.8848 35.6794C24.9232 35.5712 24.9481 35.4583 24.9779 35.3472C26.1817 35.0963 27.3672 34.801 28.3618 34.0419C29.6106 34.0175 30.5228 33.1413 31.6747 32.8714C32.4682 32.7852 33.2899 32.7741 33.9013 32.1273C34.5931 32.1096 34.9983 31.3631 35.5897 31.3623C36.2655 31.3613 36.7429 31.0109 37.276 30.8006C39.2408 30.0257 41.3268 29.5821 43.2496 28.7143C43.5847 28.5632 43.9065 28.714 44.2297 28.5639L44.3232 28.1287C45.0419 28.3214 45.6745 27.7526 46.4169 27.8827L46.9581 27.3875L47.1663 27.5889C47.9519 27.11 48.8972 26.9681 49.697 26.4786C49.9751 26.3083 50.4203 26.3938 50.7979 26.362L51.2565 25.9181H52.0556L52.4321 25.3613C53.5861 25.6219 54.3353 24.8139 55.2953 24.6616L55.6301 24.9244L56.2642 24.1394C57.4375 24.3425 58.3418 23.8399 59.2937 23.5525C59.9087 23.3667 60.4985 23.0732 61.1595 23.2119L61.7114 22.7086L61.9087 22.8994C62.1721 22.7678 62.4861 22.721 62.7314 22.4378H63.7771C63.9131 22.2135 63.5936 22.2056 63.6569 22.0437C64.0405 21.7713 64.581 22.1994 64.9392 21.7851C65.3414 22.0124 65.6788 21.9081 66.1148 21.7634C66.4657 21.6471 66.9507 21.6552 67.2462 21.4455C67.6268 21.1754 68.1413 21.3331 68.4429 20.9274L68.8473 21.2035C69.1608 20.8128 69.8874 21.1049 70.0351 20.4542L70.3496 20.7206C70.7411 20.3758 71.2641 20.3066 71.738 20.1291C72.8363 19.718 73.9501 19.35 75.0723 19.0042C75.1824 18.9705 75.2795 18.8906 75.3756 18.8233C75.9977 18.3873 76.7508 18.2725 77.4456 18.0125C78.1404 17.7524 78.8709 17.5304 79.5115 17.2072C79.9539 16.9844 80.4982 17.2676 80.8763 16.7599C81.0858 16.4787 81.6519 16.4508 82.0531 16.298C82.4904 16.1314 83.0012 16.038 83.3332 15.7526C83.6253 15.5015 83.953 15.5424 84.2347 15.4608C85.0318 15.2296 85.7762 14.8826 86.5208 14.5558C87.3209 14.2048 88.1388 13.9775 88.978 13.7488C89.9121 13.4942 90.7594 12.9522 91.6871 12.6629C92.9296 12.2755 94.1344 11.834 95.2449 11.1661C96.5873 11.1114 97.6464 10.2027 98.956 10.0232C99.7406 9.91578 100.342 9.33215 101.122 9.14212C101.843 8.96664 102.607 8.82122 103.149 8.21911C103.25 8.10696 103.558 8.19372 103.727 8.10819C103.907 8.01725 104.034 7.83018 104.189 7.67959L104.368 7.8706C104.59 7.96032 104.631 7.61181 104.865 7.67244C105.009 7.70991 105.204 7.74071 105.305 7.58643L105.384 7.21254H106.18C106.758 6.42015 107.824 6.56334 108.591 6.00658C109.274 5.50995 110.273 5.41949 111.128 5.15134C111.203 5.03796 111.202 4.92656 111.148 4.83118L111.054 4.72938C110.599 5.31548 109.825 4.67418 109.319 5.15134C109.205 5.25904 108.924 5.21147 108.72 5.21838C108.151 5.23735 107.604 5.24376 107.035 5.43847C106.312 5.68543 105.476 5.60385 104.745 5.76282C103.704 5.98957 102.686 5.89172 101.647 5.96812L101.125 6.44257C101.055 6.37529 100.964 6.25649 100.94 6.26808C100.122 6.66587 99.1518 6.50444 98.3456 6.93427C97.1786 6.78023 96.088 7.18099 95.0075 7.46492C93.8446 7.77053 92.5879 7.4765 91.4733 8.12446C91.0236 8.38596 90.3255 8.01232 89.8251 8.42121C88.6345 8.37734 87.5436 8.93066 86.3479 8.9415C85.7383 8.94692 85.1225 9.21631 84.5258 9.4125C83.7237 9.67597 82.87 9.63801 82.0539 9.8655C81.6031 9.9912 81.132 10.1061 80.6932 10.2645C80.4942 10.3365 80.3129 10.3993 80.1128 10.388C79.2044 10.3358 78.3736 10.6365 77.5229 10.8755C76.7996 11.0789 76.0519 11.2001 75.3204 11.3791C74.363 11.6132 73.4096 11.8648 72.4577 12.1199C72.3474 12.1495 72.2569 12.2493 72.0843 12.3657C70.9471 12.1263 69.8757 12.725 68.7497 12.9816C68.4103 13.059 68.0023 12.932 67.7061 13.199C67.2823 13.5812 66.6098 13.0846 66.2211 13.5918C65.724 13.547 65.3079 13.8415 64.8037 13.8795C64.0746 13.9342 63.3447 14.2176 62.647 14.4582C62.2893 14.5816 61.8965 14.4091 61.5983 14.6773C61.1753 15.0576 60.592 14.6923 60.0808 15.0221C59.7571 15.2308 59.1782 15.2831 58.6998 15.359C57.7365 15.512 56.776 15.8009 55.8483 16.1048C55.1448 16.3352 54.3757 16.3801 53.7175 16.7747C53.5487 16.8757 53.1897 16.8928 53.1104 16.5433C52.8734 16.6337 52.9642 16.8302 52.8325 17.0441C52.01 16.8309 51.3406 17.5691 50.5111 17.5313C50.2942 17.3278 50.4295 17.1099 50.3809 16.9083C50.6667 16.6845 51.0717 16.8299 51.3831 16.5645C51.6854 16.3067 51.933 16.855 52.2775 16.7937C52.8038 15.9052 53.7467 15.9158 54.618 15.7718C54.768 15.6272 54.918 15.4822 55.0677 15.3371C55.0977 15.3516 55.1285 15.3799 55.1575 15.3785C56.256 15.3257 56.69 15.1914 57.7675 14.5767H59.5604L60.0681 14.0286C60.5773 14.0177 60.9711 13.8822 61.2742 13.7991C61.6939 13.684 62.2062 13.7291 62.5204 13.493C62.8931 13.2128 63.3103 13.478 63.6838 13.2056C63.9414 13.0176 64.3545 12.517 64.7625 13.0575C65.1024 12.8127 65.5532 12.7492 65.7594 12.3294C66.5394 12.4532 67.2698 12.3329 67.94 11.9375L67.8838 11.6775C67.4857 11.5915 67.1376 11.5989 66.7387 11.8355C66.546 11.9496 66.3268 12.204 65.976 12.1266C65.3969 11.9992 64.9024 12.3583 64.369 12.4958C63.9922 12.5931 63.5981 12.8847 63.262 12.8248C62.2253 12.6402 61.4486 13.5916 60.4301 13.3478C59.898 13.9398 59.166 13.7658 58.4949 13.878C58.2849 13.913 57.7057 13.9204 57.7675 14.5767H56.2212C55.7183 14.7574 55.2874 15.1559 54.6653 15.079C54.2234 15.0243 53.8578 15.4963 53.3735 15.3154C51.7573 15.9182 50.0837 16.3468 48.4294 16.8334C47.3372 17.1547 46.2735 17.5634 45.148 17.7874C44.5345 17.9094 44.0003 18.2503 43.348 18.3523C42.6331 18.4642 41.8805 18.6754 41.2683 19.1073C40.8732 19.3858 40.4532 19.1504 40.0477 19.2882C39.6313 19.7685 38.966 19.6781 38.4148 19.873C36.5339 20.5385 34.5878 21.007 32.6967 21.6567C31.6673 22.0104 30.6339 22.4008 29.5768 22.6879C28.5123 22.977 27.4483 23.2597 26.4977 23.8091C26.1761 23.9952 25.7846 23.8402 25.4815 24.1539C25.3414 24.2988 24.8917 24.2269 24.7697 23.7408C24.8256 23.3871 25.3384 23.3019 25.6234 23.2279C26.7748 22.9297 27.7033 22.1196 28.8977 21.9539C31.0231 20.7687 33.4353 20.2812 35.669 19.3567C36.4953 19.0148 37.3297 18.6488 38.1862 18.4147C39.5169 18.0507 40.7187 17.3768 42.0509 17.0387C42.8881 16.8262 43.6637 16.4434 44.4793 16.1701C44.8569 16.0437 45.2723 16.2068 45.6419 15.8931C45.9018 15.6727 46.308 15.4768 46.7603 15.5505C47.1974 15.6217 47.2998 14.8983 47.8192 15.0689C48.5433 14.6418 49.4199 14.6696 50.1727 14.3298C50.777 14.0569 51.39 13.702 52.0276 13.6411C52.7684 13.5704 53.404 13.2618 54.0933 13.0893C54.7372 12.9281 55.3505 12.6545 55.9916 12.4808C57.2814 12.1331 58.5684 11.7757 59.8525 11.4086C60.3167 11.275 60.7858 11.2228 61.1961 10.9088C62.2268 10.876 62.4327 10.7323 63.6813 10.246C64.3232 9.99588 65.0424 9.74498 65.7195 9.69445C66.6645 9.62396 67.49 9.2168 68.3851 9.03047C68.9109 8.92104 69.5663 9.17244 69.999 8.66792C70.9639 8.80151 71.7591 8.19322 72.6889 8.0976C73.5383 8.01035 74.3483 7.58988 75.1987 7.47206C75.5785 7.41932 75.9049 7.27982 76.2098 7.1418C76.4393 7.03779 76.6445 6.89558 76.8881 6.95153C77.5712 7.10853 78.1923 6.80044 78.8093 6.6602C79.3737 6.53179 79.9938 6.51331 80.4802 6.17491L80.7642 6.42508C81.2393 6.12808 81.8604 6.14928 82.3198 5.71426C82.915 5.69578 83.5501 5.63909 84.1933 5.51093C84.8202 5.38597 85.4482 5.29971 86.0413 5.05398C86.0774 5.03895 86.1077 4.97486 86.1341 4.97856C87.2622 5.13729 88.2979 4.74417 89.3576 4.48514C90.0501 4.31581 90.779 4.30965 91.4492 4.02301C91.6266 3.9471 91.8618 3.99812 92.0705 3.98998C92.5147 3.97273 92.9342 3.9784 93.3796 3.77655C93.7485 3.60944 94.226 3.69324 94.6701 3.53156C95.1379 3.36149 95.6377 3.10912 96.2075 3.23925C96.5194 3.31048 96.8408 3.08324 97.122 3.04355C98.1585 2.8974 99.1858 2.71896 100.213 2.52351C100.644 2.44144 101.083 2.53485 101.518 2.29011C101.84 2.10945 102.271 2.26423 102.694 2.06681C103.161 1.84844 103.828 2.12177 104.345 1.77425C105.269 1.96157 106.152 1.61503 107.03 1.48243C108.284 1.29266 109.606 1.35526 110.795 0.801448C110.864 0.769407 110.962 0.77828 111.043 0.791343C112.006 0.946863 112.9 0.386644 113.863 0.542165C114.405 0.62966 114.84 0.181832 115.413 0.279433C115.906 0.363478 116.47 0.420657 116.928 0.27401C118.413 -0.200685 119.922 0.217569 121.487 -6.10352e-05L122.079 0.82437C121.987 1.1327 122.326 1.57658 122.405 2.12177C121.993 2.47323 121.682 2.94792 121.118 3.14165C121.305 3.3472 121.567 3.5005 121.646 3.75905C121.285 4.26332 120.402 4.0903 120.32 4.86445C119.775 5.20235 119.079 5.31967 118.582 5.80226C118.42 5.9595 118.193 6.09727 117.973 6.14706C116.872 6.39599 116.023 7.13958 115.007 7.54058C112.868 8.38498 110.821 9.43986 108.624 10.1563C108.147 10.3121 107.741 10.6729 107.266 10.8398C106.636 11.0594 106.042 11.4296 105.351 11.4421C105.285 11.2169 105.447 10.9973 105.179 10.9016C105.009 11.072 105.03 11.2285 105.351 11.4421ZM99.0783 12.6432C99.4711 12.5495 99.7678 12.7408 100.082 12.3307C99.7187 12.4278 99.4632 12.2259 99.2242 12.6072C99.1022 12.586 99.0252 12.6405 98.999 12.7529C98.9944 12.7718 99.0542 12.8295 99.0737 12.8253C99.1899 12.7999 99.2458 12.7255 99.0783 12.6432ZM32.83 38.4053C33.0812 38.3906 33.3906 38.6013 33.58 38.3351C33.6107 38.1451 33.6072 37.9952 33.3212 37.957C33.0939 37.9383 33.0133 38.2109 32.8948 38.5747C32.4934 38.4083 32.1601 38.3804 31.7444 38.6126C32.169 38.7275 32.5028 38.7689 32.83 38.4053ZM16.1915 44.8586L16.928 44.8588C17.033 44.7139 17.2496 44.6466 17.2577 44.4324C16.8194 44.2072 16.5484 44.446 16.295 44.8588C16.0445 44.9525 15.651 44.6306 15.5317 45.105C15.4481 45.105 15.3622 45.092 15.2816 45.107C13.8978 45.3665 12.6695 46.0258 11.3859 46.5419C11.2911 46.5801 11.1673 46.6753 11.2072 46.8283H10.7938C10.6659 47.0391 10.6611 47.1744 10.8085 47.3065C11.1886 47.3639 11.3564 47.1379 11.4614 46.8283C11.7899 46.9535 11.9579 46.6001 12.2361 46.5841C12.5567 46.5654 12.8424 46.5814 13.1501 46.3534C13.7788 45.8876 14.5504 45.7025 15.3339 45.595C15.4646 45.577 15.5605 45.5043 15.5315 45.3513C15.9266 45.3907 16.1953 45.2473 16.1915 44.8586ZM20.6195 43.1353C21.0591 43.1286 21.5175 43.2127 21.8915 42.8891H22.3046C22.4325 42.6786 22.4373 42.5433 22.2982 42.4183C22.1012 42.388 21.8993 42.3476 21.8915 42.6428C21.4206 42.6931 20.8216 42.4338 20.6195 43.1353C20.3691 43.2289 19.9755 42.907 19.9519 43.3113L18.5592 43.7551C18.7992 43.9025 18.8627 44.15 19.1177 44.1226C19.3707 43.8767 19.6196 43.6344 19.8563 43.3815C20.1067 43.2876 20.5003 43.6095 20.6195 43.1353ZM24.9443 41.4117H23.7799C23.5534 41.8635 22.9542 41.8813 22.6562 42.2729C22.7363 42.3855 22.8698 42.4405 22.9801 42.391C23.5824 42.1203 24.3718 42.2988 24.8304 41.6656C24.8721 41.6079 25.0725 41.658 25.1991 41.658C25.4978 41.6513 25.5283 41.4093 25.4172 41.2794C25.2458 41.0797 25.0119 41.064 24.9443 41.4117ZM70.4795 11.1291C70.4795 11.0882 70.4912 11.0424 70.4762 11.0074C70.4612 10.9724 70.3977 10.9196 70.3928 10.9231C70.1452 11.1023 69.7908 11.103 69.5645 11.4118H68.5018C68.4289 11.5836 68.2001 11.6036 68.256 11.8641C69.0243 11.9127 69.7295 11.5513 70.479 11.4934C70.4823 11.4932 70.4795 11.4165 70.4795 11.3754C70.8886 11.3359 71.302 11.4399 71.7111 11.2972C72.5648 10.999 73.356 10.457 74.3386 10.6369C74.7372 10.1519 75.3489 10.526 75.8327 10.2808C76.4312 9.9774 77.0973 9.81227 77.7896 9.90913C77.8056 9.49999 78.1117 9.41151 78.4867 9.15346C77.3254 9.16603 76.4355 9.81793 75.4354 9.69076C75.0052 9.78047 74.7306 10.2475 74.2341 10.1406C73.5985 10.0038 73.0232 10.3168 72.4529 10.4422C71.8811 10.5679 71.1637 10.5788 70.7256 11.124C70.6939 11.1634 70.5639 11.1291 70.4795 11.1291ZM97.9559 5.89098C98.4432 6.09826 98.6372 5.54692 99.0786 5.69061C99.4205 5.80176 99.8392 5.66719 100.21 5.72462C100.652 5.79289 100.967 5.4885 101.366 5.41678C101.907 5.31967 102.477 5.29601 103.004 5.12348C103.299 5.02736 103.558 4.78509 103.852 4.74959C104.147 4.71386 104.432 4.38433 104.755 4.66949C105.004 4.24483 105.296 5.00814 105.547 4.64164C105.619 4.51595 105.53 4.32148 105.732 4.24902C105.975 4.66604 106.248 4.43806 106.518 4.27638C106.859 4.8016 107.141 4.19135 107.467 4.22487C107.885 4.268 108.417 4.38926 108.711 4.20072C109.203 3.88524 109.676 4.01981 110.152 4.00231C110.644 3.98407 111.036 3.62891 111.571 3.727C112.217 3.84531 112.863 3.69768 113.494 3.50395C113.795 3.41153 113.752 3.26168 113.671 3.06845C112.621 2.74139 111.64 3.29125 110.62 3.25034C110.14 3.71912 109.508 3.37579 108.969 3.54215C108.165 3.79059 107.329 4.00502 106.498 3.96386C105.492 3.91383 104.561 4.41046 103.557 4.24015C103.491 4.22881 103.414 4.29758 103.339 4.31458C102.722 4.45408 102.096 4.72495 101.488 4.69291C100.762 4.65471 100.111 4.8992 99.4449 5.02145C99.0163 5.10007 98.5902 5.20482 98.146 5.22577C98.0799 5.22897 98.0174 5.30759 97.9561 5.34974L97.9559 5.89098ZM94.6208 5.98316C93.7724 5.88507 93.0603 6.01446 92.3827 6.31195C92.2765 6.35853 92.2043 6.45711 92.0609 6.45465C90.9176 6.43444 89.8251 6.75238 88.7095 6.9047C88.1096 6.98653 87.445 7.00033 86.9355 7.23151C86.3261 7.5083 85.6646 7.35031 85.0851 7.66776C84.7091 7.87405 84.2688 7.94996 83.802 7.95539C83.4662 7.95933 83.0213 8.0663 82.8995 8.58338C83.5915 8.84464 84.0438 8.31449 84.6479 8.2472C84.838 8.45867 85.1172 8.51437 85.4584 8.32977C86.3581 7.84324 87.3308 7.63966 88.3561 7.68477C88.9467 7.71065 89.4989 7.65051 89.909 7.22067C90.3188 7.08906 90.7233 7.29362 91.1393 7.0511C91.4703 6.85836 91.9378 6.79699 92.3344 6.82312C92.726 6.849 93.0636 6.54732 93.4376 6.70211C93.8471 6.87167 94.1871 6.31688 94.6203 6.64295C94.6208 6.43099 94.6208 6.23801 94.6208 5.98316ZM25.7564 41.134C26.7675 41.3413 27.4913 40.4914 28.4327 40.4076C28.9043 40.3657 29.3253 40.0734 29.6378 39.699C29.9375 39.6172 30.2968 39.8218 30.5462 39.5406L30.4798 39.1593C30.2721 39.304 30.0802 39.1765 29.8076 39.264C28.6557 39.6347 27.6311 40.2935 26.4507 40.6073C26.2178 40.6691 25.8316 40.4587 25.7065 40.85L25.7564 41.134ZM94.9564 6.1621C95.8073 6.38786 96.5878 5.95482 97.4202 5.88704V5.44907C96.5456 5.54469 95.6459 5.22823 94.8943 5.87743L94.9564 6.1621ZM116.809 19.2919C117.164 19.1366 117.805 19.4747 118.064 18.745C117.695 18.811 117.384 18.867 117.074 18.9236C116.983 18.8485 116.919 18.7238 116.779 18.759C116.535 18.7358 116.488 19.0545 116.237 19.0126C116.071 18.9844 115.9 18.9849 115.734 19.0143C115.589 19.0414 115.324 18.8625 115.314 19.1952C115.702 19.3638 116.144 19.1193 116.494 19.3375L116.571 19.7025C116.878 19.704 116.742 19.4957 116.809 19.2919ZM116.544 2.59646C116.085 2.48605 115.752 2.50897 115.337 2.72068C114.982 2.90184 114.45 2.75814 114.013 2.75814V3.50272C114.805 3.01004 115.765 3.12834 116.544 2.59646ZM80.4608 8.64426C79.9816 9.14212 79.2514 8.77883 78.6131 8.98488C78.6909 9.23479 78.4506 9.517 78.8022 9.65551C79.1531 9.68361 79.2418 9.34077 79.5278 9.16825C79.8588 9.09283 80.2834 9.2624 80.6637 9.0635C80.6337 8.92794 80.7097 8.79559 80.4608 8.64426ZM82.4113 8.46385H80.9335V8.87027H82.4113V8.46385ZM93.8756 16.5011C93.8909 16.2584 93.9193 16.09 93.6854 16.0535C93.3893 16.0079 93.2596 16.3493 92.9225 16.3261C92.6563 16.3076 92.3726 16.5302 92.0049 16.684C92.7672 17.0059 93.284 16.4491 93.8756 16.5011ZM8.22931 47.7804C7.85483 47.9456 7.41881 48.0548 7.14271 48.4599C7.71805 48.7345 8.01932 48.2869 8.3755 48.2145C8.43474 47.984 8.37931 47.8884 8.22931 47.7804ZM36.0448 37.3369C35.3357 37.0665 35.0243 37.4429 34.5776 37.5937C35.1377 37.9265 35.4519 37.4892 36.0448 37.3369ZM109.138 19.6192C109.366 19.8284 109.57 20.0443 109.868 20.3046C109.89 19.9263 110.014 19.6892 109.781 19.4977C109.59 19.5425 109.376 19.4158 109.138 19.6192ZM103.529 10.893C103.098 10.8519 102.954 11.0586 102.806 11.2854C103.061 11.4131 103.285 11.4224 103.529 11.2812V10.893ZM122.069 18.8288C121.843 18.8265 121.593 18.6718 121.338 18.8978C121.632 19.0451 121.857 19.0565 122.069 18.8288ZM104.301 10.5135C104.567 10.7077 104.822 10.7077 105.088 10.5135C104.822 10.3192 104.568 10.3192 104.301 10.5135ZM30.7925 39.0728C30.9646 39.2517 31.1342 39.2517 31.3063 39.0728C31.1342 38.8941 30.9646 38.8941 30.7925 39.0728ZM95.862 13.91C95.7394 13.9721 95.5233 13.6665 95.4448 14.0027C95.5983 14.1217 95.7392 14.1301 95.862 13.91ZM102.222 11.4481C102.099 11.5102 101.883 11.2046 101.804 11.5407C101.958 11.6595 102.099 11.6682 102.222 11.4481ZM102.659 11.6228C102.541 11.7036 102.541 11.7857 102.659 11.8663C102.778 11.7855 102.778 11.7034 102.659 11.6228Z" fill="#F88585"/>
<path d="M43.6597 19.7309C43.4766 19.6204 43.4405 19.46 43.1207 19.5576C42.4396 20.1654 41.3507 20.1358 40.4011 20.4865C39.6313 20.7709 38.8101 20.8897 38.0446 21.1993C37.8087 21.2947 37.4733 21.2986 37.1286 21.1108C38.1537 20.2938 39.5492 20.453 40.6892 19.7543H41.8742L42.2123 19.3377C42.6806 19.1263 43.2321 19.5002 43.4296 19.0131C43.7695 18.9914 43.8153 19.3353 43.8326 19.3296C44.3954 19.1615 44.2345 18.7292 44.7448 18.5616C45.6836 18.4758 46.726 18.0016 47.8068 17.6613C48.5436 17.4291 49.2496 17.1725 50.0316 17.3177C50.1852 17.3988 50.1048 17.538 50.1427 17.679C49.2745 17.9294 48.4251 18.2969 47.5436 18.395C46.6164 18.4983 45.8909 19.3037 44.8564 18.9427C44.7038 19.6276 43.978 19.3323 43.6597 19.7309Z" fill="#F9E6E6"/>
<path d="M36.01 21.2232C36.1297 21.339 36.2492 21.4554 36.4574 21.6577C35.8035 21.6553 35.2707 21.8862 34.5781 22.0494C35.1074 21.4522 35.3579 21.3198 36.01 21.2232Z" fill="#F9E6E6"/>
<path d="M32.7001 22.2081H32.951C33.1043 22.3175 33.1191 22.457 33.0504 22.6041C32.963 22.7533 32.8244 22.6835 32.708 22.7017C32.514 22.5386 32.5188 22.3744 32.7001 22.2081Z" fill="#F9E6E6"/>
<path d="M97.9559 5.89101V5.34977C98.0174 5.30787 98.0797 5.229 98.1458 5.2258C98.5899 5.20485 99.016 5.1001 99.4447 5.02148C100.111 4.89923 100.762 4.65473 101.488 4.69294C102.096 4.72498 102.722 4.45436 103.339 4.31461C103.414 4.2976 103.491 4.22884 103.557 4.24018C104.561 4.41048 105.491 3.91386 106.498 3.96389C107.329 4.00505 108.165 3.79062 108.969 3.54218C109.508 3.37582 110.14 3.71915 110.62 3.25037C111.64 3.29128 112.621 2.74141 113.671 3.06847C113.751 3.2617 113.795 3.41131 113.494 3.50398C112.863 3.6977 112.217 3.84534 111.57 3.72703C111.035 3.62894 110.644 3.98434 110.151 4.00234C109.676 4.01984 109.203 3.88527 108.711 4.20074C108.417 4.38904 107.885 4.26778 107.467 4.2249C107.141 4.19138 106.859 4.80163 106.518 4.27641C106.247 4.43809 105.974 4.66607 105.731 4.24905C105.53 4.32151 105.619 4.51598 105.547 4.64167C105.296 5.00792 105.003 4.24486 104.755 4.66952C104.432 4.38411 104.147 4.71388 103.852 4.74962C103.558 4.78511 103.298 5.02739 103.004 5.12351C102.477 5.29604 101.907 5.3197 101.365 5.41681C100.967 5.48828 100.651 5.79267 100.21 5.72465C99.8393 5.66722 99.4203 5.80179 99.0783 5.69063C98.6372 5.54694 98.4435 6.09829 97.9559 5.89101Z" fill="#F9E6E6"/>
<path d="M94.6208 5.98317V6.64321C94.1878 6.31713 93.8477 6.87193 93.4381 6.70236C93.0641 6.54758 92.7265 6.84925 92.3349 6.82337C91.9383 6.79725 91.4705 6.85837 91.1398 7.05136C90.7236 7.29363 90.3194 7.08931 89.9095 7.22093C89.4997 7.65076 88.9473 7.7109 88.3567 7.68502C87.3311 7.63992 86.3584 7.8435 85.4589 8.33003C85.1177 8.51463 84.8385 8.45893 84.6484 8.24746C84.0443 8.31474 83.592 8.84489 82.9 8.58364C83.0215 8.06655 83.4667 7.95959 83.8025 7.95564C84.2691 7.95022 84.7097 7.87431 85.0857 7.66802C85.6648 7.35032 86.3266 7.5083 86.936 7.23177C87.4455 7.00034 88.1101 6.98678 88.7101 6.90496C89.8256 6.75264 90.9183 6.4347 92.0614 6.45491C92.2048 6.45737 92.2767 6.35903 92.3833 6.31221C93.0603 6.01447 93.7724 5.88532 94.6208 5.98317Z" fill="#F9E6E6"/>
<path d="M70.4796 11.1292C70.564 11.1292 70.6939 11.1634 70.7257 11.124C71.1637 10.5788 71.8812 10.568 72.4529 10.4423C73.0232 10.3168 73.5985 10.0038 74.2341 10.1406C74.7306 10.2476 75.0052 9.78051 75.4354 9.6908C76.4355 9.81773 77.3254 9.16607 78.4867 9.1535C78.1117 9.41155 77.8054 9.50003 77.7896 9.90917C77.0973 9.81231 76.4312 9.97744 75.8327 10.2808C75.3489 10.5261 74.7375 10.1519 74.3386 10.637C73.356 10.4571 72.5648 10.9993 71.7111 11.2973C71.302 11.44 70.8886 11.336 70.4796 11.3754V11.1292Z" fill="#F9E6E6"/>
<path d="M11.2072 46.8284C11.1673 46.6753 11.2911 46.5799 11.3859 46.542C12.6696 46.0259 13.8978 45.3666 15.2816 45.107C15.3622 45.092 15.4484 45.1051 15.5318 45.1051V45.3513C15.5608 45.5043 15.4647 45.577 15.3342 45.595C14.5507 45.7025 13.7791 45.8876 13.1503 46.3534C12.8427 46.5814 12.557 46.5654 12.2364 46.5841C11.9582 46.6004 11.7902 46.9538 11.4617 46.8284H11.2072Z" fill="#F9E6E6"/>
<path d="M94.9564 6.16213L94.8943 5.87746C95.6459 5.22826 96.5456 5.54473 97.4202 5.4491V5.88707C96.5878 5.9546 95.8073 6.38789 94.9564 6.16213Z" fill="#F9E6E6"/>
<path d="M25.1986 41.658C25.072 41.658 24.8719 41.6079 24.8299 41.6656C24.3713 42.2985 23.5819 42.1204 22.9796 42.391C22.8693 42.4405 22.7358 42.3856 22.6557 42.2729C22.9539 41.8813 23.5529 41.8635 23.7794 41.4118H24.9438C25.1203 41.4056 25.2052 41.4877 25.1986 41.658Z" fill="#F9E6E6"/>
<path d="M116.809 19.2919C116.742 19.4957 116.878 19.704 116.571 19.7025L116.495 19.3375C116.144 19.1194 115.702 19.3639 115.314 19.1953C115.324 18.8626 115.589 19.0415 115.734 19.0144C115.9 18.985 116.071 18.9844 116.237 19.0127C116.488 19.0546 116.535 18.7359 116.779 18.759C116.919 18.7238 116.983 18.8485 117.074 18.9234C117.384 18.8672 117.695 18.8113 118.064 18.7452C117.805 19.4748 117.164 19.1366 116.809 19.2919Z" fill="#F9E6E6"/>
<path d="M116.544 2.5965C115.765 3.12813 114.805 3.01007 114.013 3.50276V2.75818C114.449 2.75818 114.981 2.90187 115.337 2.72072C115.752 2.50925 116.085 2.48609 116.544 2.5965Z" fill="#F9E6E6"/>
<path d="M70.4795 11.1292V11.3754C70.4795 11.4163 70.4826 11.4932 70.479 11.4935C69.7293 11.5516 69.024 11.9127 68.256 11.8641C68.2001 11.6034 68.4291 11.5834 68.5018 11.4119H69.5645C69.7908 11.1031 70.1455 11.1026 70.3928 10.9231C70.3977 10.9197 70.4612 10.9724 70.4762 11.0074C70.4912 11.0424 70.4795 11.088 70.4795 11.1292Z" fill="#F9E6E6"/>
<path d="M80.4609 8.64429C80.7098 8.79562 80.6337 8.92797 80.6637 9.06328C80.2834 9.26242 79.8588 9.09286 79.5278 9.16803C79.2421 9.34055 79.1533 9.68339 78.8022 9.65529C78.4506 9.51678 78.6906 9.23457 78.6131 8.98466C79.2512 8.77886 79.9816 9.1419 80.4609 8.64429Z" fill="#F9E6E6"/>
<path d="M82.4113 8.46387V8.87029H80.9335V8.46387H82.4113Z" fill="#F9E6E6"/>
<path d="M8.22931 47.7805C8.37931 47.8884 8.43473 47.984 8.37549 48.2145C8.01956 48.2869 7.71804 48.7345 7.1427 48.46C7.4188 48.0548 7.85482 47.9456 8.22931 47.7805Z" fill="#F9E6E6"/>
<path d="M19.9519 43.3113L19.1178 44.1227C18.8628 44.15 18.7992 43.9026 18.5592 43.7552L19.9519 43.3113Z" fill="#F9E6E6"/>
<path d="M21.8914 42.8891C21.5175 43.2127 21.0591 43.1287 20.6195 43.1353C20.8214 42.4341 21.4204 42.6932 21.8914 42.6429V42.8891Z" fill="#F9E6E6"/>
<path d="M36.0448 37.3369C35.4519 37.4892 35.1377 37.9265 34.5776 37.5937C35.0243 37.4429 35.3357 37.0668 36.0448 37.3369Z" fill="#F9E6E6"/>
<path d="M109.138 19.6192C109.376 19.4161 109.59 19.5425 109.781 19.4977C110.014 19.6892 109.89 19.9263 109.868 20.3046C109.57 20.0443 109.366 19.8284 109.138 19.6192Z" fill="#F9E6E6"/>
<path d="M16.1915 44.8586C16.5485 44.4457 16.8195 44.2072 17.2578 44.4322C17.2497 44.6464 17.0333 44.7137 16.9281 44.8586H16.1915Z" fill="#F9E6E6"/>
<path d="M32.83 38.4054C33.0133 38.2109 33.0939 37.9381 33.3211 37.9571C33.6072 37.9953 33.6107 38.1451 33.58 38.3351C33.3905 38.6011 33.0811 38.3903 32.83 38.4054Z" fill="#F9E6E6"/>
<path d="M15.532 45.3511V45.1048C15.6512 44.6304 16.0448 44.9523 16.2952 44.8586C16.1953 45.2473 15.9266 45.3907 15.532 45.3511Z" fill="#F9E6E6"/>
<path d="M103.529 10.8931V11.2813C103.285 11.4225 103.061 11.4131 102.806 11.2855C102.954 11.0587 103.098 10.8519 103.529 10.8931Z" fill="#F9E6E6"/>
<path d="M11.2072 46.8284H11.4617C11.3567 47.1379 11.1889 47.3639 10.8088 47.3065C10.6614 47.1742 10.6662 47.0391 10.7941 46.8284H11.2072Z" fill="#F9E6E6"/>
<path d="M32.8948 38.5747C32.5028 38.7689 32.1692 38.7275 31.7444 38.6126C32.1598 38.3804 32.4931 38.4083 32.8948 38.5747Z" fill="#F9E6E6"/>
<path d="M122.069 18.8288C121.857 19.0565 121.632 19.0449 121.338 18.8978C121.593 18.6718 121.843 18.8266 122.069 18.8288Z" fill="#F9E6E6"/>
<path d="M104.301 10.5135C104.567 10.3192 104.822 10.3192 105.088 10.5135C104.822 10.7077 104.568 10.7077 104.301 10.5135Z" fill="#F9E6E6"/>
<path d="M99.0783 12.6432C99.4632 12.2259 99.7185 12.428 100.082 12.3307C99.7675 12.7408 99.4708 12.5498 99.0783 12.6432Z" fill="#F9E6E6"/>
<path d="M20.6195 43.1353C20.5003 43.6097 20.1067 43.2879 19.8563 43.3815C19.9758 42.9071 20.3694 43.229 20.6195 43.1353Z" fill="#F9E6E6"/>
<path d="M105.372 11.5092C105.03 11.2285 105.009 11.0722 105.179 10.9019C105.447 10.9973 105.285 11.2169 105.372 11.5092Z" fill="#F9E6E6"/>
<path d="M95.862 13.91C95.7394 14.1301 95.5986 14.1215 95.4448 14.0027C95.5233 13.6665 95.7394 13.9721 95.862 13.91Z" fill="#F9E6E6"/>
<path d="M102.222 11.4481C102.099 11.6682 101.958 11.6596 101.804 11.5408C101.883 11.2046 102.099 11.5102 102.222 11.4481Z" fill="#F9E6E6"/>
<path d="M99.2243 12.6075C99.2461 12.7255 99.1899 12.8002 99.0737 12.8256C99.0542 12.8298 98.9944 12.7724 98.999 12.7531C99.0252 12.6405 99.1022 12.5863 99.2243 12.6075Z" fill="#F9E6E6"/>
<path d="M102.659 11.6228C102.778 11.7036 102.778 11.7857 102.659 11.8663C102.541 11.7855 102.541 11.7034 102.659 11.6228Z" fill="#F9E6E6"/>
<path d="M114.745 36.9346L120.557 38.4248L120.209 39.781C120.07 40.3235 120.001 40.5947 119.842 40.7748C119.702 40.9333 119.516 41.0435 119.31 41.0896C119.076 41.1421 118.805 41.0725 118.262 40.9334L115.55 40.238C115.007 40.0989 114.736 40.0293 114.556 39.8706C114.398 39.731 114.287 39.5448 114.241 39.3387C114.189 39.1045 114.258 38.8332 114.397 38.2907L114.745 36.9346Z" fill="#F88585"/>
<rect x="115.242" y="34.9972" width="6" height="2" transform="rotate(14.3814 115.242 34.9972)" fill="white"/>
<rect x="121.7" y="9.81201" width="3" height="26" transform="rotate(14.3814 121.7 9.81201)" fill="#FEE1E1"/>
<rect x="124.606" y="10.5571" width="3" height="26" transform="rotate(14.3814 124.606 10.5571)" fill="#E6BABA"/>
<path d="M126.096 4.74513L127.512 11.3022L121.7 9.81198L126.096 4.74513Z" fill="#F8DC96"/>
<path d="M126.096 4.74512L123.898 7.27855L126.804 8.02368L126.096 4.74512Z" fill="#5D5D5F"/>
</g>
<g clip-path="url(#clip2_1204_1842)">
<path d="M24.8484 33.15C23.0876 33.15 21.5658 32.4756 20.2833 31.1268C19.0007 29.7781 18.3594 27.8708 18.3594 25.4051C18.3594 22.9394 18.9898 21.0111 20.2507 19.6202C21.5115 18.2293 23.0441 17.5339 24.8484 17.5339C25.7397 17.5339 26.5766 17.713 27.3592 18.0713C28.1418 18.4295 28.707 18.9669 29.0549 19.6834V12.2231H27.4245V11.5909H33.9461V32.1384H35.5765V32.7706H29.0549V31.3165C28.4679 32.5388 27.0658 33.15 24.8484 33.15ZM29.0549 25.8477V20.6318C28.4679 19.4938 27.7016 18.9248 26.756 18.9248C25.8103 18.9248 25.0006 19.4516 24.3267 20.5053C23.6528 21.5591 23.3158 23.2292 23.3158 25.5158C23.3158 27.8023 23.6636 29.4725 24.3593 30.5262C25.0549 31.5799 25.8919 32.033 26.8701 31.8855C27.4136 31.8012 27.8266 31.6326 28.1092 31.3797C28.7397 30.7896 29.0549 28.9456 29.0549 25.8477ZM43.2394 30.8581C43.7177 31.9224 44.5438 32.4545 45.7177 32.4545C46.8915 32.4545 47.7285 31.9171 48.2285 30.8423C48.7285 29.7675 48.9785 27.992 48.9785 25.5158C48.9785 23.0395 48.7285 21.2588 48.2285 20.1734C47.7285 19.0881 46.8915 18.5454 45.7177 18.5454C44.5438 18.5454 43.7177 19.0881 43.2394 20.1734C42.7612 21.2588 42.5221 23.0448 42.5221 25.5316C42.5221 28.0184 42.7612 29.7939 43.2394 30.8581ZM45.6524 33.0867C43.5873 33.0867 41.7177 32.4334 40.0438 31.1268C38.3699 29.8202 37.533 27.9657 37.533 25.5632C37.533 24.2777 37.7776 23.1291 38.2667 22.1175C38.7558 21.106 39.408 20.3051 40.2232 19.7151C41.0384 19.125 41.9134 18.6771 42.8481 18.3716C43.7829 18.066 44.7394 17.9132 45.7177 17.9132C46.6959 17.9132 47.6578 18.066 48.6035 18.3716C49.5491 18.6771 50.4295 19.125 51.2447 19.7151C52.0599 20.3051 52.7175 21.106 53.2175 22.1175C53.7175 23.1291 53.9675 24.2671 53.9675 25.5316C53.9675 26.796 53.7175 27.9235 53.2175 28.914C52.7175 29.9045 52.0545 30.6948 51.2284 31.2849C49.5763 32.4861 47.7176 33.0867 45.6524 33.0867ZM62.1196 25.1522V30.3682C62.7065 31.5062 63.4728 32.0752 64.4185 32.0752C65.3641 32.0752 66.1739 31.5483 66.8478 30.4946C67.5217 29.4409 67.8586 27.7497 67.8586 25.4209C67.8586 23.0922 67.5978 21.459 67.076 20.5211C66.5543 19.5833 65.7608 19.1144 64.6956 19.1144C63.6304 19.1144 62.9348 19.5359 62.6087 20.3789C62.2826 21.2219 62.1196 22.813 62.1196 25.1522ZM62.1196 18.2293V19.6834C62.8587 18.4611 64.1848 17.85 66.0978 17.85C68.0108 17.85 69.6086 18.5244 70.8912 19.8731C72.1738 21.2219 72.8151 23.1291 72.8151 25.5948C72.8151 28.0605 72.1846 29.9888 70.9238 31.3797C69.6629 32.7706 68.1304 33.4661 66.326 33.4661C65.4347 33.4661 64.5978 33.287 63.8152 32.9287C63.0326 32.5704 62.4674 32.033 62.1196 31.3165V38.7768H63.75V39.4091H57.2283V18.8615H55.5979V18.2293H62.1196ZM89.5105 26.4483H79.6628C79.8802 30.1574 81.3693 32.012 84.1301 32.012C84.8692 32.012 85.7116 31.8434 86.6573 31.5062C87.6029 31.169 88.2931 30.6948 88.7279 30.0837L89.1844 30.3998C88.7061 31.1795 87.8909 31.8223 86.7388 32.3281C85.5866 32.8339 84.4399 33.0867 83.2986 33.0867C82.1573 33.0867 81.1302 32.9761 80.2171 32.7548C79.3041 32.5335 78.4128 32.1595 77.5433 31.6326C76.6737 31.1058 75.9944 30.3155 75.5052 29.2617C75.0161 28.208 74.7716 26.933 74.7716 25.4368C74.7716 22.8868 75.4998 20.9953 76.9563 19.7625C78.4128 18.5296 80.1791 17.9132 82.2551 17.9132C84.3312 17.9132 86.0594 18.5876 87.4398 19.9363C88.8203 21.2851 89.5105 23.4558 89.5105 26.4483ZM79.6302 25.4684V25.8161H84.9453C84.9453 23.8772 84.7334 22.1808 84.3095 20.7266C83.8856 19.2725 83.2062 18.5454 82.2714 18.5454C81.3367 18.5454 80.6628 19.2461 80.2497 20.6476C79.8367 22.049 79.6302 23.656 79.6302 25.4684ZM109.01 23.9826V32.1384H110.641V32.7706H102.489V32.1384H104.119V23.2872C104.119 21.7909 103.891 20.7266 103.434 20.0944C102.978 19.4622 102.293 19.146 101.38 19.146C100.141 19.146 99.1516 19.7783 98.4125 21.0427V32.1384H100.043V32.7706H91.8909V32.1384H93.5213V18.8615H91.8909V18.2293H98.4125V19.8731C98.8255 19.3252 99.4723 18.8563 100.353 18.4664C101.233 18.0765 102.184 17.8816 103.206 17.8816C107.075 17.8816 109.01 19.9153 109.01 23.9826Z" fill="white"/>
</g>
</g>
<defs>
<clipPath id="clip0_1204_1842">
<rect width="129" height="51" fill="white"/>
</clipPath>
<clipPath id="clip1_1204_1842">
<rect width="129" height="51" fill="white"/>
</clipPath>
<clipPath id="clip2_1204_1842">
<rect width="92.2812" height="27.8182" fill="white" transform="translate(18.3594 11.5909)"/>
</clipPath>
</defs>
</svg>
