<svg width="129" height="51" viewBox="0 0 129 51" fill="none" xmlns="http://www.w3.org/2000/svg">
<g clip-path="url(#clip0_389_1060)">
<g clip-path="url(#clip1_389_1060)">
<path d="M105.351 11.4422C105.355 11.7574 104.952 11.6796 104.797 11.7318C104.089 11.9701 103.452 12.3672 102.751 12.5935C101.41 13.0255 100.164 13.6749 98.8198 14.1058C97.8221 14.4257 96.8812 14.9203 95.8719 15.2299C95.5348 15.3332 95.2658 15.5629 94.8707 15.5856C94.5265 15.6053 94.3328 15.921 94.3915 16.3001C94.2689 16.2796 94.1919 16.3338 94.1655 16.4462C94.1611 16.4652 94.2206 16.5229 94.2402 16.5187C94.3564 16.4933 94.4126 16.4186 94.3912 16.3001C95.6357 16.3193 96.8459 15.8641 98.1018 16.0534C98.5981 15.6334 99.3074 15.9984 99.8248 15.6137C99.9346 15.5318 100.144 15.5653 100.307 15.5631C100.731 15.5572 101.247 15.7081 101.557 15.5259C101.997 15.2669 102.297 15.5784 102.638 15.5984C103.283 15.6363 103.8 15.2479 104.444 15.2866C105.034 15.3221 105.695 15.535 106.252 15.0768C106.326 15.0162 106.499 15.0714 106.626 15.068C107.236 15.0515 107.846 15.1399 108.439 14.8417C108.693 14.7141 109.062 14.7942 109.321 15.0226C109.522 14.7052 109.858 14.7964 110.123 14.8348C110.721 14.9213 111.192 14.4629 111.803 14.5585C112.34 14.6426 112.904 14.597 113.453 14.5642C113.632 14.5534 113.802 14.4025 113.947 14.3303C114.242 14.3155 114.331 14.7281 114.642 14.5758C115.506 14.1509 116.434 14.3729 117.335 14.3394C117.605 14.3293 117.808 14.2537 118.005 13.9993C118.418 14.4262 118.927 14.3015 119.412 14.3362C119.796 14.3636 120.023 13.966 120.457 14.0626C120.79 14.1366 121.197 14.2002 121.51 13.8541C121.575 13.7827 121.881 13.8041 122.094 13.9185C122.671 14.2273 123.264 14.2103 123.857 13.8302C124.135 13.7723 124.266 14.2125 124.61 14.0888C124.889 13.9887 125.11 14.2177 125.363 14.2835L125.472 13.8716C126.493 14.337 127.5 14.7996 128.481 15.4702V16.1786L128.923 16.6064C129.196 17.2009 128.648 17.6265 128.726 18.1168L127.848 19.0082C126.987 19.0472 126.293 18.6551 125.546 18.3305L124.961 18.5984C124.815 18.7844 125.049 19.0807 124.8 19.2515C124.573 19.162 124.768 18.8525 124.496 18.7753L124.333 19.2214L123.985 19.0491C123.677 19.5241 124.25 19.5165 124.279 19.7287C124.598 19.7802 124.661 19.5887 124.793 19.5029C125.038 19.7816 125.427 19.8063 125.716 20.0037C125.988 19.703 126.371 20.0274 126.649 19.8221C126.919 20.1851 127.381 19.8376 127.68 20.0796C127.883 20.4708 127.144 20.663 127.643 21.1749C126.973 21.1498 126.564 21.3689 126.28 21.7746C125.363 21.4781 124.501 21.2205 123.64 21.7162C123.172 21.3401 122.525 21.3263 122.116 21.5202C121.719 21.7083 121.379 21.4379 121.095 21.6178C120.684 21.8786 120.423 21.5589 120.092 21.4808C119.852 21.4241 119.531 21.3785 119.342 21.4862C118.675 21.8663 117.962 21.642 117.276 21.7204C116.799 21.7748 116.266 21.5266 115.849 21.9567C115.809 21.9976 115.66 21.9959 115.604 21.957C114.948 21.499 114.302 21.9087 113.648 21.9513C112.931 21.9981 112.176 21.8322 111.494 21.991C110.338 22.2604 109.158 22.0378 108.04 22.2522C107.129 22.4272 106.214 22.2995 105.346 22.4851C104.357 22.6966 103.348 22.545 102.402 22.7437C101.575 22.9172 100.707 22.7378 99.9712 22.9934C99.1704 23.2714 98.3838 23.0057 97.6503 23.2167C96.7912 23.4636 95.9161 23.313 95.085 23.4747C94.3928 23.6093 93.642 23.5698 93.0295 23.9585L92.6612 23.6285C92.1789 24.2119 91.4154 23.7138 90.85 24.0564C90.6448 24.1808 90.4618 24.1793 90.2632 24.1744C88.9994 24.1425 87.7383 24.3046 86.5267 24.6548C86.1758 24.7553 85.7665 24.6937 85.3872 24.6654C84.5162 24.6001 83.6965 24.7953 82.8957 25.0896C82.4048 25.27 81.8126 24.9858 81.3789 25.4087C80.4146 25.2286 79.5026 25.6039 78.5612 25.6791C77.5725 25.7582 76.5967 26.016 75.6245 26.2341C75.4906 26.2642 75.368 26.3865 75.1878 26.4015C74.7502 26.438 74.3223 26.3017 73.8698 26.6066C73.5535 26.8195 72.9695 26.5011 72.5999 26.8858C71.4978 26.6374 70.581 27.4872 69.5043 27.3748C69.2295 27.3462 69.1176 27.6144 68.8527 27.6592C68.6529 27.693 68.4602 27.8882 68.1884 27.8749C66.7924 27.8064 65.5098 28.3311 64.2076 28.6808C63.0821 28.9832 61.908 29.1981 60.8783 29.8185C60.6371 29.9639 60.2229 29.8399 60.1499 29.8399C58.6871 30.4169 57.4276 30.7467 56.0644 30.8675C55.6685 31.3266 55.0118 31.2635 54.4523 31.4314C52.8723 31.906 51.2902 32.3738 49.7059 32.8348C49.062 33.0218 48.4164 33.379 47.7842 33.6853C47.2274 33.9549 46.6658 34.3382 46.004 34.2544C45.6542 34.21 45.4391 34.4282 45.2304 34.5413C43.1995 35.6425 40.9142 36.1589 38.8534 37.1814C38.1601 37.0188 37.7492 37.5753 37.2102 37.7988C36.7068 38.0076 36.1968 38.2062 35.6988 38.4308C34.6007 38.9254 33.4356 39.2811 32.2941 39.6836C32.1476 39.7353 31.9808 39.6542 31.8273 39.7873C30.9774 40.5225 29.8374 40.6941 28.8385 41.1215C27.8775 41.5326 26.8656 41.8522 25.9125 42.3067C25.5682 42.4709 25.1716 42.5317 24.8101 42.6365L24.6065 42.4396C24.5513 42.4652 24.4427 42.4916 24.4422 42.5199C24.4341 42.9135 24.191 43.0885 23.829 43.1321C23.1413 43.2152 22.6064 43.644 21.985 43.8772C21.4008 44.0963 20.8135 44.2915 20.2435 44.5676C19.1968 45.0745 18.0726 45.4336 16.973 45.8346C16.8286 45.8874 16.6652 45.8526 16.5243 45.9813C15.9159 46.5371 15.154 46.7268 14.347 46.837C13.8421 46.906 13.519 47.5269 12.9032 47.3203C12.4029 47.9819 11.5675 47.9629 10.881 48.2414C10.2309 48.5051 9.55798 48.7166 8.89239 48.9431C8.18968 49.1821 7.48621 49.4013 6.79672 49.6948C5.86749 50.0906 4.83555 50.2639 3.84275 50.5143C3.65055 50.5628 3.47004 50.5658 3.2692 50.6669C2.54056 51.0341 2.52607 51.007 1.62149 50.9934L1.07387 49.6255C1.27446 49.4937 1.58692 49.4666 1.7748 49.1683C0.99531 48.9312 0.898446 47.9478 0.107009 47.8155C-0.136803 47.3302 0.0658231 47.0081 0.413872 46.8387C1.44099 46.3394 2.42132 45.7705 3.4014 45.1916C3.78174 44.9671 4.28309 44.9099 4.69317 44.6516C5.61783 44.069 6.68867 43.7517 7.61714 43.1555C7.98985 42.9162 8.40985 42.6833 8.91553 42.62C9.38561 42.5611 9.72425 42.1362 10.1384 41.9222C10.8958 41.5308 11.7599 41.3245 12.4949 40.9031C13.924 40.0833 15.5376 39.673 16.9829 38.9015C17.4696 38.6418 17.9872 38.4601 18.5226 38.4397L18.6289 38.0448C18.7023 38.0182 18.7738 37.9827 18.8496 37.9669C19.0875 37.9179 19.326 38.0182 19.5772 37.8797C20.3269 37.4661 21.0975 37.0866 21.923 36.8265C22.2243 36.7316 22.4727 36.5833 22.5355 36.2567L22.8609 36.5382C23.4591 36.2027 23.9607 35.5654 24.7646 35.7677C24.8231 35.7266 24.8739 35.7095 24.8849 35.6795C24.9233 35.5713 24.9482 35.4584 24.9779 35.3472C26.1817 35.0963 27.3672 34.8011 28.3618 34.042C29.6106 34.0176 30.5228 33.1414 31.6747 32.8715C32.4682 32.7852 33.2899 32.7741 33.9013 32.1274C34.5931 32.1097 34.9984 31.3631 35.5897 31.3624C36.2655 31.3614 36.7429 31.0109 37.2761 30.8007C39.2408 30.0258 41.3268 29.5821 43.2496 28.7143C43.5847 28.5633 43.9066 28.7141 44.2297 28.564L44.3232 28.1287C45.042 28.3215 45.6745 27.7526 46.4169 27.8828L46.9581 27.3876L47.1664 27.589C47.952 27.1101 48.8972 26.9681 49.697 26.4786C49.9752 26.3083 50.4203 26.3939 50.7979 26.3621L51.2565 25.9182H52.0556L52.4321 25.3614C53.5861 25.6219 54.3353 24.814 55.2953 24.6617L55.6301 24.9244L56.2642 24.1394C57.4375 24.3425 58.3418 23.84 59.2937 23.5526C59.9087 23.3667 60.4985 23.0732 61.1595 23.212L61.7115 22.7087L61.9088 22.8994C62.1721 22.7678 62.4861 22.721 62.7315 22.4378H63.7771C63.9132 22.2135 63.5936 22.2056 63.6569 22.0437C64.0405 21.7714 64.581 22.1995 64.9392 21.7852C65.3415 22.0124 65.6788 21.9082 66.1148 21.7635C66.4657 21.6472 66.9508 21.6553 67.2462 21.4455C67.6268 21.1754 68.1413 21.3332 68.4429 20.9275L68.8474 21.2035C69.1608 20.8129 69.8874 21.1049 70.0352 20.4543L70.3496 20.7207C70.7412 20.3759 71.2641 20.3066 71.738 20.1292C72.8363 19.7181 73.9501 19.3501 75.0723 19.0043C75.1824 18.9705 75.2795 18.8907 75.3756 18.8234C75.9977 18.3874 76.7508 18.2725 77.4456 18.0125C78.1404 17.7525 78.8709 17.5304 79.5116 17.2073C79.9539 16.9845 80.4982 17.2677 80.8763 16.76C81.0858 16.4788 81.652 16.4509 82.0532 16.2981C82.4904 16.1315 83.0012 16.0381 83.3332 15.7527C83.6254 15.5015 83.9531 15.5424 84.2347 15.4608C85.0318 15.2297 85.7762 14.8826 86.5208 14.5558C87.3209 14.2049 88.1388 13.9776 88.978 13.7489C89.9121 13.4943 90.7595 12.9523 91.6872 12.663C92.9296 12.2755 94.1345 11.8341 95.245 11.1662C96.5873 11.1115 97.6465 10.2027 98.956 10.0233C99.7406 9.91584 100.342 9.33221 101.122 9.14218C101.843 8.9667 102.607 8.82128 103.149 8.21917C103.25 8.10702 103.558 8.19378 103.727 8.10825C103.907 8.01731 104.034 7.83024 104.189 7.67965L104.368 7.87066C104.59 7.96038 104.631 7.61187 104.865 7.6725C105.009 7.70997 105.204 7.74078 105.305 7.58649L105.384 7.2126H106.18C106.758 6.42021 107.824 6.5634 108.591 6.00664C109.274 5.51001 110.273 5.41955 111.128 5.1514C111.203 5.03802 111.202 4.92662 111.148 4.83124L111.054 4.72944C110.599 5.31554 109.825 4.67424 109.319 5.1514C109.205 5.2591 108.924 5.21154 108.72 5.21844C108.151 5.23741 107.604 5.24382 107.035 5.43853C106.312 5.68549 105.476 5.60391 104.745 5.76288C103.704 5.98963 102.686 5.89178 101.647 5.96819L101.125 6.44263C101.055 6.37535 100.964 6.25655 100.94 6.26814C100.122 6.66593 99.1518 6.5045 98.3456 6.93433C97.1787 6.78029 96.088 7.18105 95.0075 7.46498C93.8446 7.77059 92.5879 7.47656 91.4734 8.12452C91.0236 8.38602 90.3255 8.01238 89.8251 8.42127C88.6346 8.3774 87.5436 8.93072 86.348 8.94156C85.7383 8.94698 85.1225 9.21637 84.5258 9.41256C83.7237 9.67603 82.87 9.63807 82.0539 9.86556C81.6031 9.99126 81.1321 10.1061 80.6932 10.2646C80.4942 10.3366 80.3129 10.3994 80.1128 10.3881C79.2044 10.3358 78.3736 10.6365 77.5229 10.8756C76.7996 11.0789 76.0519 11.2002 75.3205 11.3791C74.363 11.6133 73.4096 11.8649 72.4578 12.12C72.3474 12.1496 72.2569 12.2494 72.0843 12.3657C70.9471 12.1264 69.8757 12.7251 68.7497 12.9816C68.4103 13.059 68.0023 12.9321 67.7061 13.199C67.2823 13.5813 66.6098 13.0847 66.2211 13.5919C65.7241 13.547 65.3079 13.8416 64.8037 13.8795C64.0746 13.9342 63.3447 14.2177 62.6471 14.4582C62.2893 14.5817 61.8966 14.4092 61.5983 14.6773C61.1753 15.0576 60.5921 14.6924 60.0808 15.0221C59.7572 15.2309 59.1783 15.2831 58.6998 15.3591C57.7365 15.5121 56.776 15.801 55.8483 16.1049C55.1448 16.3353 54.3757 16.3802 53.7175 16.7748C53.5487 16.8758 53.1897 16.8928 53.1104 16.5433C52.8735 16.6338 52.9642 16.8302 52.8325 17.0441C52.0101 16.831 51.3407 17.5691 50.5111 17.5314C50.2942 17.3278 50.4295 17.11 50.3809 16.9083C50.6667 16.6845 51.0717 16.83 51.3831 16.5645C51.6854 16.3067 51.933 16.8551 52.2775 16.7937C52.8038 15.9052 53.7468 15.9158 54.618 15.7719C54.768 15.6272 54.918 15.4823 55.0678 15.3371C55.0978 15.3517 55.1285 15.38 55.1575 15.3785C56.2561 15.3258 56.69 15.1915 57.7675 14.5768H59.5604L60.0681 14.0286C60.5773 14.0178 60.9711 13.8822 61.2742 13.7992C61.6939 13.6841 62.2062 13.7292 62.5204 13.4931C62.8932 13.2128 63.3104 13.478 63.6838 13.2057C63.9414 13.0176 64.3545 12.517 64.7626 13.0575C65.1025 12.8128 65.5532 12.7492 65.7594 12.3295C66.5394 12.4532 67.2698 12.3329 67.94 11.9376L67.8838 11.6776C67.4857 11.5916 67.1376 11.599 66.7387 11.8356C66.546 11.9497 66.3269 12.204 65.976 12.1266C65.3969 11.9992 64.9024 12.3583 64.369 12.4959C63.9922 12.5932 63.5982 12.8848 63.2621 12.8249C62.2253 12.6403 61.4486 13.5916 60.4301 13.3479C59.898 13.9399 59.1661 13.7659 58.4949 13.878C58.2849 13.913 57.706 13.9204 57.7678 14.5768H56.2212C55.7184 14.7574 55.2874 15.156 54.6653 15.0791C54.2235 15.0244 53.8579 15.4963 53.3735 15.3154C51.7574 15.9183 50.0837 16.3469 48.4294 16.8334C47.3372 17.1548 46.2735 17.5634 45.148 17.7875C44.5345 17.9095 44.0004 18.2504 43.348 18.3524C42.6331 18.4643 41.8805 18.6755 41.2683 19.1073C40.8733 19.3858 40.4533 19.1504 40.0478 19.2882C39.6313 19.7686 38.966 19.6781 38.4148 19.8731C36.534 20.5385 34.5878 21.0071 32.6968 21.6568C31.6674 22.0104 30.6339 22.4008 29.5768 22.688C28.5123 22.9771 27.4483 23.2598 26.4977 23.8092C26.1761 23.9952 25.7846 23.8402 25.4816 24.154C25.3415 24.2989 24.8917 24.2269 24.7697 23.7409C24.8256 23.3872 25.3384 23.3019 25.6234 23.228C26.7749 22.9298 27.7033 22.1196 28.8977 21.954C31.0231 20.7687 33.4353 20.2812 35.669 19.3567C36.4953 19.0149 37.3297 18.6489 38.1862 18.4147C39.5169 18.0507 40.7187 17.3769 42.0509 17.0387C42.8881 16.8263 43.6638 16.4435 44.4793 16.1702C44.8569 16.0437 45.2723 16.2069 45.642 15.8931C45.9018 15.6728 46.3081 15.4769 46.7604 15.5506C47.1974 15.6218 47.2998 14.8984 47.8192 15.069C48.5433 14.6418 49.4199 14.6697 50.1727 14.3298C50.777 14.057 51.39 13.7021 52.0276 13.6412C52.7685 13.5704 53.4041 13.2619 54.0933 13.0893C54.7373 12.9282 55.3505 12.6546 55.9917 12.4808C57.2815 12.1332 58.5685 11.7758 59.8525 11.4087C60.3167 11.2751 60.7858 11.2229 61.1961 10.9089C62.2268 10.8761 62.4327 10.7324 63.6813 10.2461C64.3232 9.99594 65.0425 9.74504 65.7195 9.69451C66.6645 9.62402 67.49 9.21686 68.3852 9.03053C68.9109 8.9211 69.5663 9.1725 69.9991 8.66798C70.9639 8.80157 71.7591 8.19328 72.6889 8.09766C73.5383 8.01041 74.3483 7.58994 75.1987 7.47213C75.5785 7.41938 75.905 7.27988 76.2098 7.14186C76.4394 7.03785 76.6445 6.89564 76.8881 6.95159C77.5712 7.10859 78.1923 6.8005 78.8093 6.66026C79.3738 6.53185 79.9938 6.51337 80.4802 6.17497L80.7642 6.42514C81.2393 6.12814 81.8604 6.14934 82.3198 5.71433C82.915 5.69584 83.5501 5.63915 84.1933 5.51099C84.8203 5.38603 85.4482 5.29977 86.0414 5.05404C86.0774 5.03901 86.1077 4.97493 86.1341 4.97862C87.2622 5.13735 88.298 4.74423 89.3576 4.4852C90.0501 4.31587 90.779 4.30971 91.4492 4.02307C91.6267 3.94716 91.8618 3.99818 92.0706 3.99005C92.5147 3.97279 92.9342 3.97846 93.3796 3.77661C93.7485 3.6095 94.226 3.6933 94.6701 3.53162C95.1379 3.36156 95.6377 3.10918 96.2075 3.23931C96.5194 3.31054 96.8408 3.0833 97.122 3.04361C98.1585 2.89746 99.1859 2.71902 100.213 2.52357C100.644 2.4415 101.083 2.53491 101.518 2.29017C101.84 2.10951 102.271 2.26429 102.694 2.06687C103.161 1.8485 103.828 2.12183 104.345 1.77431C105.269 1.96163 106.152 1.61509 107.03 1.4825C108.284 1.29272 109.606 1.35532 110.795 0.801509C110.864 0.769468 110.962 0.778341 111.043 0.791404C112.006 0.946924 112.9 0.386705 113.863 0.542226C114.405 0.629721 114.84 0.181893 115.413 0.279494C115.906 0.363539 116.47 0.420718 116.928 0.274071C118.413 -0.200624 119.922 0.21763 121.487 0L122.079 0.824431C121.987 1.13276 122.326 1.57664 122.405 2.12183C121.993 2.47329 121.682 2.94798 121.118 3.14171C121.305 3.34726 121.567 3.50056 121.646 3.75911C121.285 4.26338 120.402 4.09036 120.32 4.86451C119.775 5.20241 119.079 5.31974 118.582 5.80232C118.42 5.95956 118.193 6.09733 117.973 6.14712C116.872 6.39605 116.023 7.13964 115.007 7.54064C112.868 8.38504 110.821 9.43992 108.624 10.1564C108.147 10.3122 107.741 10.673 107.266 10.8398C106.636 11.0594 106.042 11.4296 105.351 11.4422C105.285 11.2169 105.447 10.9973 105.179 10.9017C105.009 11.072 105.03 11.2285 105.351 11.4422ZM99.0783 12.6432C99.4711 12.5496 99.7678 12.7408 100.082 12.3307C99.7187 12.4278 99.4632 12.226 99.2243 12.6073C99.1022 12.5861 99.0252 12.6405 98.999 12.7529C98.9944 12.7719 99.0542 12.8296 99.0737 12.8254C99.1899 12.8 99.2459 12.7256 99.0783 12.6432ZM32.83 38.4054C33.0812 38.3906 33.3906 38.6013 33.58 38.3352C33.6108 38.1451 33.6072 37.9953 33.3212 37.9571C33.0939 37.9383 33.0133 38.2109 32.8948 38.5747C32.4934 38.4084 32.1601 38.3805 31.7444 38.6127C32.169 38.7275 32.5028 38.7689 32.83 38.4054ZM16.1915 44.8586L16.928 44.8589C17.033 44.714 17.2496 44.6467 17.2578 44.4325C16.8195 44.2072 16.5485 44.446 16.295 44.8589C16.0446 44.9525 15.651 44.6306 15.5318 45.1051C15.4481 45.1051 15.3622 45.092 15.2816 45.1071C13.8978 45.3666 12.6696 46.0259 11.3859 46.542C11.2911 46.5802 11.1673 46.6753 11.2072 46.8284H10.7938C10.6659 47.0391 10.6611 47.1744 10.8086 47.3065C11.1887 47.364 11.3564 47.138 11.4614 46.8284C11.7899 46.9536 11.958 46.6002 12.2361 46.5841C12.5567 46.5654 12.8425 46.5814 13.1501 46.3535C13.7788 45.8876 14.5504 45.7025 15.334 45.5951C15.4646 45.5771 15.5605 45.5044 15.5315 45.3513C15.9266 45.3908 16.1953 45.2473 16.1915 44.8586ZM20.6195 43.1353C21.0591 43.1287 21.5175 43.2127 21.8915 42.8891H22.3046C22.4325 42.6786 22.4373 42.5433 22.2983 42.4184C22.1012 42.3881 21.8994 42.3476 21.8915 42.6429C21.4206 42.6932 20.8217 42.4339 20.6195 43.1353C20.3691 43.229 19.9756 42.9071 19.9519 43.3113L18.5592 43.7552C18.7992 43.9026 18.8628 44.15 19.1178 44.1227C19.3707 43.8767 19.6196 43.6344 19.8563 43.3816C20.1067 43.2877 20.5003 43.6095 20.6195 43.1353ZM24.9444 41.4118H23.7799C23.5534 41.8636 22.9542 41.8813 22.6562 42.2729C22.7363 42.3856 22.8698 42.4405 22.9801 42.391C23.5824 42.1204 24.3718 42.2988 24.8305 41.6657C24.8721 41.608 25.0725 41.658 25.1991 41.658C25.4978 41.6514 25.5283 41.4093 25.4172 41.2794C25.2459 41.0798 25.012 41.064 24.9444 41.4118ZM70.4796 11.1292C70.4796 11.0883 70.4912 11.0424 70.4762 11.0074C70.4613 10.9724 70.3977 10.9197 70.3929 10.9231C70.1452 11.1023 69.7908 11.1031 69.5646 11.4119H68.5019C68.4289 11.5837 68.2001 11.6036 68.256 11.8642C69.0243 11.9127 69.7296 11.5514 70.4791 11.4935C70.4824 11.4932 70.4796 11.4166 70.4796 11.3754C70.8886 11.336 71.302 11.44 71.7111 11.2973C72.5648 10.9991 73.356 10.4571 74.3386 10.637C74.7373 10.152 75.3489 10.5261 75.8328 10.2809C76.4312 9.97746 77.0973 9.81232 77.7896 9.90919C77.8056 9.50005 78.1117 9.41157 78.4867 9.15352C77.3254 9.16609 76.4355 9.81799 75.4354 9.69082C75.0052 9.78053 74.7306 10.2476 74.2341 10.1406C73.5985 10.0038 73.0232 10.3168 72.4529 10.4423C71.8812 10.568 71.1637 10.5788 70.7257 11.124C70.6939 11.1635 70.564 11.1292 70.4796 11.1292ZM97.9559 5.89104C98.4432 6.09832 98.6372 5.54698 99.0786 5.69067C99.4205 5.80182 99.8393 5.66725 100.21 5.72468C100.652 5.79295 100.967 5.48856 101.366 5.41684C101.907 5.31973 102.477 5.29607 103.004 5.12354C103.299 5.02742 103.558 4.78515 103.852 4.74965C104.147 4.71392 104.432 4.38439 104.755 4.66955C105.004 4.24489 105.296 5.0082 105.547 4.64171C105.619 4.51601 105.53 4.32155 105.732 4.24908C105.975 4.66611 106.248 4.43812 106.518 4.27644C106.859 4.80166 107.141 4.19141 107.467 4.22493C107.885 4.26806 108.417 4.38932 108.711 4.20078C109.203 3.8853 109.676 4.01987 110.152 4.00237C110.644 3.98413 111.036 3.62897 111.571 3.72707C112.217 3.84537 112.863 3.69774 113.494 3.50401C113.795 3.41159 113.752 3.26174 113.671 3.06851C112.621 2.74145 111.64 3.29131 110.62 3.2504C110.14 3.71918 109.508 3.37585 108.969 3.54222C108.165 3.79065 107.329 4.00508 106.498 3.96392C105.492 3.91389 104.561 4.41052 103.557 4.24021C103.491 4.22887 103.414 4.29764 103.339 4.31464C102.722 4.45414 102.096 4.72501 101.488 4.69297C100.762 4.65477 100.111 4.89926 99.4449 5.02151C99.0163 5.10013 98.5902 5.20488 98.146 5.22583C98.0799 5.22903 98.0174 5.30765 97.9561 5.3498L97.9559 5.89104ZM94.6208 5.98322C93.7724 5.88513 93.0603 6.01452 92.3828 6.31201C92.2765 6.35859 92.2043 6.45717 92.0609 6.45471C90.9176 6.4345 89.8251 6.75244 88.7096 6.90476C88.1096 6.98659 87.445 7.00039 86.9355 7.23157C86.3261 7.50836 85.6646 7.35037 85.0852 7.66782C84.7092 7.87411 84.2688 7.95002 83.802 7.95545C83.4662 7.95939 83.0213 8.06636 82.8995 8.58344C83.5915 8.8447 84.0438 8.31455 84.6479 8.24726C84.8381 8.45873 85.1172 8.51443 85.4584 8.32983C86.3581 7.8433 87.3308 7.63972 88.3562 7.68483C88.9468 7.71071 89.499 7.65057 89.909 7.22073C90.3189 7.08912 90.7234 7.29368 91.1393 7.05116C91.4703 6.85842 91.9379 6.79705 92.3345 6.82318C92.726 6.84906 93.0636 6.54738 93.4376 6.70217C93.8472 6.87173 94.1871 6.31694 94.6203 6.64301C94.6208 6.43105 94.6208 6.23807 94.6208 5.98322ZM25.7564 41.134C26.7675 41.3413 27.4913 40.4915 28.4327 40.4077C28.9043 40.3658 29.3253 40.0735 29.6378 39.6991C29.9375 39.6173 30.2968 39.8218 30.5462 39.5406L30.4798 39.1593C30.2721 39.304 30.0802 39.1766 29.8076 39.2641C28.6557 39.6348 27.6311 40.2936 26.4507 40.6073C26.2178 40.6692 25.8316 40.4587 25.7066 40.8501L25.7564 41.134ZM94.9564 6.16216C95.8073 6.38792 96.5878 5.95488 97.4202 5.8871V5.44913C96.5456 5.54476 95.6459 5.22829 94.8944 5.87749L94.9564 6.16216ZM116.809 19.2919C117.164 19.1366 117.805 19.4748 118.064 18.745C117.695 18.8111 117.384 18.867 117.074 18.9237C116.983 18.8485 116.919 18.7238 116.779 18.7591C116.535 18.7359 116.488 19.0546 116.237 19.0127C116.071 18.9844 115.9 18.985 115.734 19.0144C115.589 19.0415 115.324 18.8626 115.314 19.1953C115.702 19.3639 116.144 19.1194 116.495 19.3375L116.571 19.7025C116.878 19.704 116.742 19.4957 116.809 19.2919ZM116.544 2.59653C116.085 2.48611 115.752 2.50903 115.337 2.72074C114.982 2.9019 114.45 2.75821 114.013 2.75821V3.50278C114.805 3.0101 115.765 3.1284 116.544 2.59653ZM80.4609 8.64432C79.9816 9.14218 79.2515 8.77889 78.6131 8.98494C78.6909 9.23485 78.4506 9.51706 78.8022 9.65557C79.1531 9.68367 79.2418 9.34084 79.5278 9.16831C79.8588 9.09289 80.2834 9.26246 80.6637 9.06356C80.6338 8.928 80.7098 8.79565 80.4609 8.64432ZM82.4114 8.46391H80.9335V8.87033H82.4114V8.46391ZM93.8756 16.5012C93.8909 16.2584 93.9194 16.0901 93.6855 16.0536C93.3893 16.008 93.2596 16.3494 92.9225 16.3262C92.6563 16.3077 92.3726 16.5303 92.005 16.6841C92.7672 17.0059 93.284 16.4492 93.8756 16.5012ZM8.22934 47.7805C7.85485 47.9456 7.41884 48.0548 7.14274 48.46C7.71808 48.7346 8.01935 48.287 8.37553 48.2145C8.43477 47.9841 8.37934 47.8884 8.22934 47.7805ZM36.0448 37.337C35.3357 37.0666 35.0243 37.4429 34.5776 37.5938C35.1377 37.9265 35.4519 37.4893 36.0448 37.337ZM109.138 19.6192C109.366 19.8285 109.57 20.0444 109.868 20.3047C109.89 19.9263 110.014 19.6892 109.781 19.4977C109.59 19.5426 109.376 19.4159 109.138 19.6192ZM103.529 10.8931C103.098 10.8519 102.954 11.0587 102.806 11.2855C103.061 11.4131 103.285 11.4225 103.529 11.2813V10.8931ZM122.069 18.8288C121.843 18.8266 121.593 18.6718 121.338 18.8978C121.632 19.0452 121.857 19.0565 122.069 18.8288ZM104.301 10.5135C104.567 10.7077 104.822 10.7077 105.088 10.5135C104.822 10.3193 104.568 10.3193 104.301 10.5135ZM30.7925 39.0728C30.9647 39.2518 31.1342 39.2518 31.3064 39.0728C31.1342 38.8941 30.9647 38.8941 30.7925 39.0728ZM95.862 13.9101C95.7394 13.9722 95.5233 13.6666 95.4448 14.0027C95.5983 14.1218 95.7392 14.1302 95.862 13.9101ZM102.222 11.4481C102.099 11.5102 101.883 11.2046 101.804 11.5408C101.958 11.6596 102.099 11.6682 102.222 11.4481ZM102.659 11.6229C102.541 11.7037 102.541 11.7858 102.659 11.8664C102.778 11.7855 102.778 11.7035 102.659 11.6229Z" fill="#F9E6E6"/>
<path d="M43.6597 19.7309C43.4767 19.6204 43.4406 19.46 43.1207 19.5576C42.4396 20.1654 41.3507 20.1358 40.4012 20.4865C39.6313 20.7709 38.8102 20.8897 38.0446 21.1993C37.8087 21.2947 37.4734 21.2986 37.1286 21.1108C38.1537 20.2938 39.5492 20.453 40.6892 19.7543H41.8742L42.2123 19.3377C42.6806 19.1263 43.2321 19.5002 43.4296 19.0131C43.7695 18.9914 43.8153 19.3353 43.8326 19.3296C44.3955 19.1615 44.2345 18.7292 44.7448 18.5616C45.6837 18.4758 46.726 18.0016 47.8068 17.6613C48.5436 17.4291 49.2496 17.1725 50.0316 17.3177C50.1852 17.3988 50.1048 17.538 50.1427 17.679C49.2745 17.9294 48.4251 18.2969 47.5437 18.395C46.6165 18.4983 45.8909 19.3037 44.8564 18.9427C44.7039 19.6276 43.978 19.3323 43.6597 19.7309Z" fill="#F9E6E6"/>
<path d="M36.01 21.2233C36.1297 21.3391 36.2492 21.4554 36.4575 21.6578C35.8036 21.6553 35.2707 21.8863 34.5781 22.0494C35.1075 21.4522 35.3579 21.3199 36.01 21.2233Z" fill="#F9E6E6"/>
<path d="M32.7001 22.2081H32.951C33.1043 22.3176 33.1191 22.4571 33.0504 22.6042C32.963 22.7533 32.8244 22.6836 32.708 22.7018C32.514 22.5386 32.5188 22.3745 32.7001 22.2081Z" fill="#F9E6E6"/>
<path d="M97.9559 5.89113V5.34989C98.0174 5.30799 98.0797 5.22912 98.1458 5.22592C98.59 5.20497 99.0161 5.10022 99.4447 5.0216C100.111 4.89935 100.762 4.65486 101.488 4.69306C102.096 4.7251 102.722 4.45448 103.339 4.31473C103.414 4.29773 103.491 4.22896 103.557 4.2403C104.561 4.41061 105.491 3.91398 106.498 3.96401C107.329 4.00517 108.165 3.79074 108.969 3.5423C109.508 3.37594 110.14 3.71927 110.62 3.25049C111.64 3.2914 112.621 2.74154 113.671 3.0686C113.751 3.26183 113.795 3.41143 113.494 3.5041C112.863 3.69783 112.217 3.84546 111.57 3.72715C111.035 3.62906 110.644 3.98447 110.151 4.00246C109.676 4.01996 109.203 3.88539 108.711 4.20087C108.417 4.38917 107.885 4.2679 107.467 4.22502C107.141 4.1915 106.859 4.80175 106.518 4.27653C106.247 4.43821 105.975 4.66619 105.731 4.24917C105.53 4.32163 105.619 4.5161 105.547 4.6418C105.296 5.00804 105.003 4.24498 104.755 4.66964C104.432 4.38424 104.147 4.71401 103.852 4.74974C103.558 4.78524 103.298 5.02751 103.004 5.12363C102.477 5.29616 101.907 5.31982 101.365 5.41693C100.967 5.4884 100.651 5.79279 100.21 5.72477C99.8393 5.66734 99.4203 5.80191 99.0784 5.69076C98.6373 5.54707 98.4435 6.09841 97.9559 5.89113Z" fill="#F9E6E6"/>
<path d="M94.6208 5.98329V6.64333C94.1879 6.31725 93.8477 6.87205 93.4381 6.70248C93.0641 6.5477 92.7265 6.84938 92.335 6.8235C91.9384 6.79737 91.4706 6.8585 91.1398 7.05148C90.7236 7.29376 90.3194 7.08944 89.9096 7.22105C89.4997 7.65089 88.9473 7.71102 88.3567 7.68514C87.3311 7.64004 86.3584 7.84362 85.4589 8.33015C85.1177 8.51475 84.8386 8.45905 84.6484 8.24758C84.0443 8.31487 83.5921 8.84501 82.9 8.58376C83.0215 8.06667 83.4667 7.95971 83.8026 7.95577C84.2691 7.95034 84.7097 7.87443 85.0857 7.66814C85.6648 7.35044 86.3266 7.50843 86.936 7.23189C87.4455 7.00046 88.1101 6.98691 88.7101 6.90508C89.8257 6.75276 90.9184 6.43482 92.0614 6.45503C92.2048 6.4575 92.2768 6.35916 92.3833 6.31233C93.0603 6.0146 93.7724 5.88545 94.6208 5.98329Z" fill="#F9E6E6"/>
<path d="M70.4796 11.1292C70.564 11.1292 70.6939 11.1635 70.7257 11.1241C71.1637 10.5789 71.8812 10.568 72.453 10.4423C73.0232 10.3169 73.5986 10.0039 74.2341 10.1407C74.7307 10.2476 75.0052 9.78057 75.4354 9.69086C76.4356 9.81779 77.3254 9.16613 78.4867 9.15356C78.1117 9.41161 77.8054 9.50009 77.7896 9.90923C77.0973 9.81237 76.4313 9.9775 75.8328 10.2809C75.349 10.5261 74.7375 10.152 74.3386 10.637C73.356 10.4571 72.5648 10.9994 71.7111 11.2973C71.302 11.44 70.8886 11.336 70.4796 11.3755V11.1292Z" fill="#F9E6E6"/>
<path d="M11.2072 46.8284C11.1673 46.6754 11.2911 46.58 11.386 46.542C12.6696 46.0259 13.8978 45.3666 15.2816 45.1071C15.3622 45.0921 15.4484 45.1051 15.5318 45.1051V45.3513C15.5608 45.5044 15.4647 45.5771 15.3343 45.5951C14.5507 45.7026 13.7791 45.8876 13.1504 46.3535C12.8427 46.5815 12.557 46.5654 12.2364 46.5842C11.9583 46.6004 11.7902 46.9539 11.4617 46.8284H11.2072Z" fill="#F9E6E6"/>
<path d="M94.9564 6.16213L94.8944 5.87746C95.6459 5.22826 96.5456 5.54473 97.4202 5.4491V5.88707C96.5878 5.9546 95.8073 6.38789 94.9564 6.16213Z" fill="#F9E6E6"/>
<path d="M25.1986 41.658C25.072 41.658 24.8719 41.608 24.83 41.6657C24.3713 42.2986 23.5819 42.1204 22.9796 42.391C22.8693 42.4406 22.7358 42.3856 22.6557 42.273C22.954 41.8813 23.5529 41.8636 23.7795 41.4118H24.9439C25.1203 41.4057 25.2052 41.4877 25.1986 41.658Z" fill="#F9E6E6"/>
<path d="M116.809 19.2919C116.742 19.4957 116.878 19.704 116.571 19.7025L116.495 19.3375C116.144 19.1194 115.702 19.3639 115.314 19.1953C115.324 18.8626 115.589 19.0415 115.734 19.0144C115.9 18.985 116.071 18.9844 116.237 19.0127C116.488 19.0546 116.535 18.7359 116.779 18.759C116.919 18.7238 116.983 18.8485 117.074 18.9234C117.384 18.8672 117.695 18.8113 118.064 18.7452C117.805 19.4748 117.164 19.1366 116.809 19.2919Z" fill="#F9E6E6"/>
<path d="M116.544 2.5965C115.765 3.12813 114.805 3.01007 114.013 3.50276V2.75818C114.449 2.75818 114.981 2.90187 115.337 2.72072C115.752 2.50925 116.085 2.48609 116.544 2.5965Z" fill="#F9E6E6"/>
<path d="M70.4796 11.1292V11.3754C70.4796 11.4163 70.4826 11.4932 70.4791 11.4935C69.7293 11.5516 69.0241 11.9127 68.256 11.8641C68.2001 11.6034 68.4292 11.5834 68.5019 11.4119H69.5646C69.7908 11.1031 70.1455 11.1026 70.3929 10.9231C70.3977 10.9197 70.4613 10.9724 70.4763 11.0074C70.4913 11.0424 70.4796 11.088 70.4796 11.1292Z" fill="#F9E6E6"/>
<path d="M80.4609 8.64429C80.7098 8.79562 80.6338 8.92797 80.6638 9.06328C80.2834 9.26242 79.8589 9.09286 79.5278 9.16803C79.2421 9.34055 79.1534 9.68339 78.8023 9.65529C78.4506 9.51678 78.6906 9.23457 78.6131 8.98466C79.2512 8.77886 79.9817 9.1419 80.4609 8.64429Z" fill="#F9E6E6"/>
<path d="M82.4114 8.46399V8.87041H80.9335V8.46399H82.4114Z" fill="#F9E6E6"/>
<path d="M8.22937 47.7805C8.37937 47.8885 8.43479 47.9841 8.37555 48.2145C8.01962 48.287 7.7181 48.7346 7.14276 48.46C7.41886 48.0548 7.85488 47.9457 8.22937 47.7805Z" fill="#F9E6E6"/>
<path d="M19.9519 43.3113L19.1178 44.1227C18.8628 44.15 18.7992 43.9026 18.5592 43.7552L19.9519 43.3113Z" fill="#F9E6E6"/>
<path d="M21.8915 42.8891C21.5175 43.2127 21.0591 43.1287 20.6196 43.1353C20.8214 42.4341 21.4204 42.6932 21.8915 42.6429V42.8891Z" fill="#F9E6E6"/>
<path d="M36.0448 37.337C35.452 37.4893 35.1377 37.9265 34.5776 37.5938C35.0243 37.443 35.3358 37.0669 36.0448 37.337Z" fill="#F9E6E6"/>
<path d="M109.138 19.6193C109.376 19.4162 109.59 19.5427 109.781 19.4978C110.014 19.6893 109.89 19.9264 109.868 20.3047C109.57 20.0445 109.366 19.8286 109.138 19.6193Z" fill="#F9E6E6"/>
<path d="M16.1915 44.8587C16.5485 44.4459 16.8195 44.2073 17.2578 44.4323C17.2497 44.6465 17.0333 44.7138 16.9281 44.8587H16.1915Z" fill="#F9E6E6"/>
<path d="M32.83 38.4054C33.0133 38.211 33.0939 37.9381 33.3212 37.9571C33.6072 37.9953 33.6108 38.1452 33.58 38.3352C33.3906 38.6011 33.0812 38.3904 32.83 38.4054Z" fill="#F9E6E6"/>
<path d="M15.532 45.3511V45.1048C15.6513 44.6304 16.0448 44.9523 16.2953 44.8586C16.1953 45.2473 15.9266 45.3907 15.532 45.3511Z" fill="#F9E6E6"/>
<path d="M103.529 10.8931V11.2813C103.285 11.4225 103.061 11.4131 102.806 11.2855C102.954 11.0587 103.098 10.8519 103.529 10.8931Z" fill="#F9E6E6"/>
<path d="M11.2072 46.8284H11.4617C11.3567 47.1379 11.1889 47.3639 10.8088 47.3065C10.6614 47.1742 10.6662 47.0391 10.7941 46.8284H11.2072Z" fill="#F9E6E6"/>
<path d="M32.8948 38.5747C32.5028 38.7689 32.1692 38.7275 31.7444 38.6127C32.1598 38.3805 32.4931 38.4083 32.8948 38.5747Z" fill="#F9E6E6"/>
<path d="M122.069 18.8288C121.857 19.0565 121.632 19.0449 121.338 18.8978C121.593 18.6718 121.843 18.8266 122.069 18.8288Z" fill="#F9E6E6"/>
<path d="M104.301 10.5136C104.567 10.3194 104.822 10.3194 105.088 10.5136C104.822 10.7078 104.568 10.7078 104.301 10.5136Z" fill="#F9E6E6"/>
<path d="M99.0783 12.6432C99.4633 12.2259 99.7185 12.428 100.082 12.3307C99.7676 12.7408 99.4709 12.5498 99.0783 12.6432Z" fill="#F9E6E6"/>
<path d="M20.6196 43.1354C20.5003 43.6098 20.1068 43.2879 19.8564 43.3816C19.9758 42.9071 20.3694 43.229 20.6196 43.1354Z" fill="#F9E6E6"/>
<path d="M105.372 11.5093C105.03 11.2285 105.009 11.0723 105.179 10.902C105.447 10.9974 105.285 11.217 105.372 11.5093Z" fill="#F9E6E6"/>
<path d="M95.862 13.9101C95.7395 14.1302 95.5986 14.1215 95.4448 14.0028C95.5234 13.6666 95.7395 13.9722 95.862 13.9101Z" fill="#F9E6E6"/>
<path d="M102.222 11.4482C102.099 11.6683 101.958 11.6596 101.805 11.5408C101.883 11.2047 102.099 11.5103 102.222 11.4482Z" fill="#F9E6E6"/>
<path d="M99.2243 12.6075C99.2462 12.7256 99.19 12.8003 99.0738 12.8257C99.0542 12.8299 98.9945 12.7724 98.999 12.7532C99.0252 12.6406 99.1023 12.5863 99.2243 12.6075Z" fill="#F9E6E6"/>
<path d="M102.66 11.6229C102.778 11.7038 102.778 11.7858 102.66 11.8664C102.541 11.7856 102.541 11.7035 102.66 11.6229Z" fill="#F9E6E6"/>
<path d="M114.745 36.9346L120.557 38.4248L120.209 39.781C120.07 40.3235 120.001 40.5947 119.842 40.7748C119.702 40.9333 119.516 41.0435 119.31 41.0896C119.076 41.1421 118.805 41.0725 118.262 40.9334L115.55 40.238C115.007 40.0989 114.736 40.0293 114.556 39.8706C114.398 39.731 114.287 39.5448 114.241 39.3387C114.189 39.1045 114.258 38.8332 114.397 38.2907L114.745 36.9346Z" fill="#F24B69"/>
<rect x="115.242" y="34.9972" width="6" height="2" transform="rotate(14.3814 115.242 34.9972)" fill="#C0BDC8"/>
<rect x="121.7" y="9.81201" width="3" height="26" transform="rotate(14.3814 121.7 9.81201)" fill="#FF7777"/>
<rect x="124.606" y="10.5571" width="3" height="26" transform="rotate(14.3814 124.606 10.5571)" fill="#CE6B6B"/>
<path d="M126.096 4.74513L127.512 11.3022L121.7 9.81198L126.096 4.74513Z" fill="#F8DC96"/>
<path d="M126.096 4.74512L123.898 7.27855L126.804 8.02368L126.096 4.74512Z" fill="#5D5D5F"/>
</g>
<g clip-path="url(#clip2_389_1060)">
<path d="M24.8484 33.15C23.0876 33.15 21.5659 32.4757 20.2833 31.1269C19.0007 29.7781 18.3594 27.8709 18.3594 25.4052C18.3594 22.9395 18.9898 21.0112 20.2507 19.6203C21.5115 18.2294 23.0441 17.5339 24.8484 17.5339C25.7397 17.5339 26.5767 17.713 27.3593 18.0713C28.1419 18.4296 28.7071 18.967 29.0549 19.6835V12.2232H27.4245V11.5909H33.9461V32.1385H35.5765V32.7707H29.0549V31.3166C28.4679 32.5389 27.0658 33.15 24.8484 33.15ZM29.0549 25.8478V20.6319C28.4679 19.4938 27.7017 18.9248 26.756 18.9248C25.8104 18.9248 25.0006 19.4517 24.3267 20.5054C23.6528 21.5591 23.3159 23.2293 23.3159 25.5158C23.3159 27.8024 23.6637 29.4726 24.3593 30.5263C25.055 31.58 25.8919 32.0331 26.8701 31.8856C27.4136 31.8013 27.8267 31.6327 28.1093 31.3798C28.7397 30.7897 29.0549 28.9457 29.0549 25.8478ZM43.2395 30.8582C43.7177 31.9225 44.5438 32.4546 45.7177 32.4546C46.8916 32.4546 47.7285 31.9172 48.2285 30.8424C48.7285 29.7676 48.9785 27.9921 48.9785 25.5158C48.9785 23.0396 48.7285 21.2588 48.2285 20.1735C47.7285 19.0882 46.8916 18.5455 45.7177 18.5455C44.5438 18.5455 43.7177 19.0882 43.2395 20.1735C42.7612 21.2588 42.5221 23.0449 42.5221 25.5316C42.5221 28.0184 42.7612 29.7939 43.2395 30.8582ZM45.6525 33.0868C43.5873 33.0868 41.7177 32.4335 40.0439 31.1269C38.37 29.8203 37.533 27.9657 37.533 25.5633C37.533 24.2777 37.7776 23.1292 38.2667 22.1176C38.7558 21.106 39.408 20.3052 40.2232 19.7151C41.0384 19.125 41.9134 18.6772 42.8482 18.3716C43.7829 18.066 44.7394 17.9133 45.7177 17.9133C46.6959 17.9133 47.6579 18.066 48.6035 18.3716C49.5491 18.6772 50.4296 19.125 51.2448 19.7151C52.06 20.3052 52.7176 21.106 53.2176 22.1176C53.7176 23.1292 53.9676 24.2672 53.9676 25.5316C53.9676 26.7961 53.7176 27.9236 53.2176 28.9141C52.7176 29.9046 52.0545 30.6949 51.2285 31.285C49.5763 32.4862 47.7177 33.0868 45.6525 33.0868ZM62.1196 25.1523V30.3682C62.7066 31.5062 63.4729 32.0752 64.4185 32.0752C65.3641 32.0752 66.1739 31.5484 66.8478 30.4947C67.5217 29.4409 67.8587 27.7497 67.8587 25.421C67.8587 23.0923 67.5978 21.459 67.0761 20.5212C66.5543 19.5834 65.7609 19.1145 64.6957 19.1145C63.6305 19.1145 62.9348 19.536 62.6087 20.379C62.2826 21.2219 62.1196 22.8131 62.1196 25.1523ZM62.1196 18.2294V19.6835C62.8587 18.4612 64.1848 17.85 66.0978 17.85C68.0108 17.85 69.6086 18.5244 70.8912 19.8732C72.1738 21.2219 72.8151 23.1292 72.8151 25.5949C72.8151 28.0606 72.1847 29.9889 70.9238 31.3798C69.663 32.7707 68.1304 33.4661 66.3261 33.4661C65.4348 33.4661 64.5978 33.287 63.8152 32.9288C63.0326 32.5705 62.4674 32.0331 62.1196 31.3166V38.7769H63.75V39.4091H57.2284V18.8616H55.598V18.2294H62.1196ZM89.5105 26.4484H79.6628C79.8802 30.1575 81.3693 32.012 84.1301 32.012C84.8693 32.012 85.7116 31.8434 86.6573 31.5062C87.6029 31.169 88.2931 30.6949 88.7279 30.0837L89.1844 30.3998C88.7062 31.1796 87.891 31.8223 86.7388 32.3281C85.5866 32.8339 84.4399 33.0868 83.2986 33.0868C82.1573 33.0868 81.1302 32.9762 80.2172 32.7549C79.3041 32.5336 78.4128 32.1595 77.5433 31.6327C76.6737 31.1058 75.9944 30.3155 75.5053 29.2618C75.0162 28.2081 74.7716 26.9331 74.7716 25.4368C74.7716 22.8868 75.4998 20.9954 76.9563 19.7625C78.4128 18.5297 80.1791 17.9133 82.2552 17.9133C84.3312 17.9133 86.0595 18.5876 87.4399 19.9364C88.8203 21.2852 89.5105 23.4558 89.5105 26.4484ZM79.6302 25.4684V25.8161H84.9454C84.9454 23.8773 84.7334 22.1808 84.3095 20.7267C83.8856 19.2726 83.2062 18.5455 82.2715 18.5455C81.3367 18.5455 80.6628 19.2462 80.2498 20.6477C79.8367 22.0491 79.6302 23.656 79.6302 25.4684ZM109.01 23.9827V32.1385H110.641V32.7707H102.489V32.1385H104.119V23.2872C104.119 21.7909 103.891 20.7267 103.434 20.0945C102.978 19.4622 102.293 19.1461 101.38 19.1461C100.141 19.1461 99.1517 19.7783 98.4125 21.0428V32.1385H100.043V32.7707H91.8909V32.1385H93.5213V18.8616H91.8909V18.2294H98.4125V19.8732C98.8256 19.3252 99.4723 18.8563 100.353 18.4665C101.233 18.0766 102.184 17.8816 103.206 17.8816C107.075 17.8816 109.01 19.9153 109.01 23.9827Z" fill="#1E1E1E"/>
</g>
</g>
<defs>
<clipPath id="clip0_389_1060">
<rect width="129" height="51" fill="white"/>
</clipPath>
<clipPath id="clip1_389_1060">
<rect width="129" height="51" fill="white"/>
</clipPath>
<clipPath id="clip2_389_1060">
<rect width="92.2812" height="27.8182" fill="white" transform="translate(18.3594 11.5909)"/>
</clipPath>
</defs>
</svg>
