<svg width="400" height="368" viewBox="0 0 400 368" fill="none" xmlns="http://www.w3.org/2000/svg">
<path d="M237.891 214.403H161.719C160.43 214.403 159.375 213.433 159.375 212.247C159.375 211.061 160.43 210.091 161.719 210.091H237.891C239.18 210.091 240.234 211.061 240.234 212.247C240.234 213.433 239.18 214.403 237.891 214.403Z" fill="#EE8282"/>
<path d="M174.217 230.596V214.065H169.53V230.596H174.217Z" fill="#EE8282"/>
<path d="M229.686 230.596V214.065H224.998V230.596H229.686Z" fill="#EE8282"/>
<path d="M63.4766 257.708V183.748H95.6641V130.489H150.586V257.708H63.4766Z" fill="#FFE4E1"/>
<path d="M112.383 139.294H101.133V147.559H112.383V139.294Z" fill="#EEABAB"/>
<path d="M129.258 139.294H118.008V147.559H129.258V139.294Z" fill="#EEABAB"/>
<path d="M146.133 139.294H134.883V147.559H146.133V139.294Z" fill="#EEABAB"/>
<path d="M112.383 152.231H101.133V160.497H112.383V152.231Z" fill="#EEABAB"/>
<path d="M129.258 152.231H118.008V160.497H129.258V152.231Z" fill="#EEABAB"/>
<path d="M146.133 152.231H134.883V160.497H146.133V152.231Z" fill="#EEABAB"/>
<path d="M112.383 165.133H101.133V173.398H112.383V165.133Z" fill="#EEABAB"/>
<path d="M129.258 165.133H118.008V173.398H129.258V165.133Z" fill="#EEABAB"/>
<path d="M146.133 165.133H134.883V173.398H146.133V165.133Z" fill="#EEABAB"/>
<path d="M112.383 178.07H101.133V186.336H112.383V178.07Z" fill="#EEABAB"/>
<path d="M129.258 178.07H118.008V186.336H129.258V178.07Z" fill="#EEABAB"/>
<path d="M146.133 178.07H134.883V186.336H146.133V178.07Z" fill="#EEABAB"/>
<path d="M112.383 191.008H101.133V199.273H112.383V191.008Z" fill="#EEABAB"/>
<path d="M95.5078 191.008H84.2578V199.273H95.5078V191.008Z" fill="#EEABAB"/>
<path d="M78.6719 191.008H67.4219V199.273H78.6719V191.008Z" fill="#EEABAB"/>
<path d="M129.258 191.008H118.008V199.273H129.258V191.008Z" fill="#EEABAB"/>
<path d="M146.133 191.008H134.883V199.273H146.133V191.008Z" fill="#EEABAB"/>
<path d="M112.383 203.945H101.133V212.211H112.383V203.945Z" fill="#EEABAB"/>
<path d="M95.5078 203.945H84.2578V212.211H95.5078V203.945Z" fill="#EEABAB"/>
<path d="M78.6719 203.945H67.4219V212.211H78.6719V203.945Z" fill="#EEABAB"/>
<path d="M129.258 203.945H118.008V212.211H129.258V203.945Z" fill="#EEABAB"/>
<path d="M146.133 203.945H134.883V212.211H146.133V203.945Z" fill="#EEABAB"/>
<path d="M112.383 216.847H101.133V225.112H112.383V216.847Z" fill="#EEABAB"/>
<path d="M95.5078 216.847H84.2578V225.112H95.5078V216.847Z" fill="#EEABAB"/>
<path d="M78.6719 216.847H67.4219V225.112H78.6719V216.847Z" fill="#EEABAB"/>
<path d="M129.258 216.847H118.008V225.112H129.258V216.847Z" fill="#EEABAB"/>
<path d="M146.133 216.847H134.883V225.112H146.133V216.847Z" fill="#EEABAB"/>
<path d="M112.383 229.784H101.133V238.05H112.383V229.784Z" fill="#EEABAB"/>
<path d="M95.5078 229.784H84.2578V238.05H95.5078V229.784Z" fill="#EEABAB"/>
<path d="M78.6719 229.784H67.4219V238.05H78.6719V229.784Z" fill="#EEABAB"/>
<path d="M129.258 229.784H118.008V238.05H129.258V229.784Z" fill="#EEABAB"/>
<path d="M146.133 229.784H134.883V238.05H146.133V229.784Z" fill="#EEABAB"/>
<path d="M247.852 256.701V210.127H272.578V156.364H310.273V181.7H332.188V256.701H247.852Z" fill="#FFE4E1"/>
<path d="M289.453 163.084H278.203V171.35H289.453V163.084Z" fill="#EEABAB"/>
<path d="M305.195 163.084H293.945V171.35H305.195V163.084Z" fill="#EEABAB"/>
<path d="M289.453 214.798H278.203V223.064H289.453V214.798Z" fill="#EEABAB"/>
<path d="M273.711 214.798H262.461V223.064H273.711V214.798Z" fill="#EEABAB"/>
<path d="M273.711 227.736H262.461V236.002H273.711V227.736Z" fill="#EEABAB"/>
<path d="M305.195 214.798H293.945V223.064H305.195V214.798Z" fill="#EEABAB"/>
<path d="M289.453 176.022H278.203V184.287H289.453V176.022Z" fill="#EEABAB"/>
<path d="M305.195 176.022H293.945V184.287H305.195V176.022Z" fill="#EEABAB"/>
<path d="M289.453 188.923H278.203V197.189H289.453V188.923Z" fill="#EEABAB"/>
<path d="M305.195 188.923H293.945V197.189H305.195V188.923Z" fill="#EEABAB"/>
<path d="M320.937 188.923H309.688V197.189H320.937V188.923Z" fill="#EEABAB"/>
<path d="M320.937 201.861H309.688V210.127H320.937V201.861Z" fill="#EEABAB"/>
<path d="M320.937 214.798H309.688V223.064H320.937V214.798Z" fill="#EEABAB"/>
<path d="M320.937 227.736H309.688V236.002H320.937V227.736Z" fill="#EEABAB"/>
<path d="M289.453 201.861H278.203V210.127H289.453V201.861Z" fill="#EEABAB"/>
<path d="M305.195 201.861H293.945V210.127H305.195V201.861Z" fill="#EEABAB"/>
<path d="M289.453 227.736H278.203V236.002H289.453V227.736Z" fill="#EEABAB"/>
<path d="M305.195 227.736H293.945V236.002H305.195V227.736Z" fill="#EEABAB"/>
<path d="M35.9375 270.142C35.9375 270.142 100.039 223.064 196.719 223.064C287.773 223.064 363.672 270.142 363.672 270.142C363.672 270.142 338.086 261.266 283.828 260.331C254.023 259.828 232.109 269.136 195.586 269.136C161.289 269.136 137.07 264.787 100.586 263.458C66.7578 262.164 35.9375 270.142 35.9375 270.142Z" fill="url(#paint0_linear_258_1772)"/>
<path d="M167.461 224.502C165.313 225.867 164.102 227.412 164.102 228.994C164.102 235.139 181.602 240.098 203.164 240.098C224.727 240.098 242.227 235.103 242.227 228.994C242.227 228.203 241.914 227.412 241.328 226.622C227.07 224.394 212.109 223.028 196.68 223.028C186.562 223.064 176.797 223.603 167.461 224.502Z" fill="url(#paint1_linear_258_1772)"/>
<path d="M135.221 253.838C144.909 251.224 151.986 246.666 151.026 243.656C150.067 240.647 141.436 240.327 131.747 242.941C122.058 245.554 114.982 250.113 115.941 253.122C116.9 256.131 125.532 256.452 135.221 253.838Z" fill="#F88585"/>
<path d="M229.336 259.113C230.105 256.797 225.678 253.5 219.447 251.748C213.217 249.996 207.542 250.452 206.773 252.768C206.004 255.084 210.431 258.381 216.661 260.133C222.892 261.885 228.566 261.428 229.336 259.113Z" fill="#F88585"/>
<path d="M292.656 225.939C294.57 224.106 295.547 221.698 295.156 219.255C294.687 216.308 292.383 214.008 289.219 212.858C289.297 212.211 289.297 211.528 289.141 210.845C288.398 207.575 284.922 205.455 281.406 206.137C277.891 206.82 275.625 210.019 276.367 213.289C276.445 213.72 276.602 214.116 276.797 214.475C274.102 216.416 272.539 219.291 273.008 222.237C273.242 223.603 273.828 224.825 274.766 225.867C272.734 227.089 271.484 228.742 271.484 230.539C271.484 234.312 276.953 237.367 283.672 237.367C290.391 237.367 295.859 234.312 295.859 230.539C295.859 228.778 294.648 227.161 292.656 225.939Z" fill="url(#paint2_linear_258_1772)"/>
<path d="M283.398 246.891C283.047 246.711 282.812 245.992 282.93 245.345C284.648 232.552 283.437 225.652 282.852 223.316C282.695 222.741 282.812 222.094 283.086 221.734C283.437 221.267 283.906 221.483 284.102 222.237C284.805 225.112 286.094 232.623 284.258 245.992C284.18 246.675 283.789 247.106 283.398 246.891Z" fill="#FF7F2A"/>
<path d="M314.492 242.722C315.586 241.68 316.133 240.314 315.937 238.912C315.664 237.223 314.336 235.93 312.539 235.247C312.578 234.887 312.578 234.492 312.5 234.097C312.07 232.228 310.078 231.042 308.086 231.402C306.055 231.797 304.805 233.63 305.234 235.498C305.273 235.75 305.352 235.966 305.469 236.181C303.906 237.295 303.047 238.912 303.32 240.602C303.438 241.392 303.789 242.075 304.336 242.686C303.164 243.369 302.461 244.303 302.461 245.345C302.461 247.502 305.586 249.227 309.414 249.227C313.242 249.227 316.367 247.466 316.367 245.345C316.289 244.339 315.625 243.405 314.492 242.722Z" fill="url(#paint3_linear_258_1772)"/>
<path d="M309.219 254.689C309.023 254.581 308.906 254.186 308.945 253.791C309.922 246.495 309.258 242.578 308.906 241.212C308.828 240.889 308.867 240.53 309.023 240.314C309.219 240.027 309.492 240.17 309.609 240.602C310 242.219 310.742 246.531 309.688 254.15C309.648 254.545 309.414 254.797 309.219 254.689Z" fill="#FF7F2A"/>
<path d="M279.844 198.662H119.766C117.578 198.662 115.82 197.045 115.82 195.033V101.667C115.82 99.6547 117.578 98.0375 119.766 98.0375H279.844C282.031 98.0375 283.789 99.6547 283.789 101.667V195.033C283.789 197.045 281.992 198.662 279.844 198.662Z" fill="#F88585"/>
<path d="M283.789 116.006H115.82V101.631C115.82 99.6547 117.578 98.0375 119.727 98.0375H279.883C282.031 98.0375 283.789 99.6547 283.789 101.631V116.006Z" fill="#C07B92"/>
<path d="M132.227 110.256H126.758C125.039 110.256 123.633 108.962 123.633 107.381C123.633 105.8 125.039 104.506 126.758 104.506H132.227C133.945 104.506 135.352 105.8 135.352 107.381C135.352 108.962 133.945 110.256 132.227 110.256Z" fill="white"/>
<path d="M247.852 110.256H142.383C140.664 110.256 139.258 108.962 139.258 107.381C139.258 105.8 140.664 104.506 142.383 104.506H247.891C249.609 104.506 251.016 105.8 251.016 107.381C250.977 108.962 249.609 110.256 247.852 110.256Z" fill="white"/>
<path d="M267.344 103.069C268.422 103.069 269.297 102.264 269.297 101.272C269.297 100.279 268.422 99.475 267.344 99.475C266.265 99.475 265.391 100.279 265.391 101.272C265.391 102.264 266.265 103.069 267.344 103.069Z" fill="white"/>
<path d="M273.594 103.069C274.672 103.069 275.547 102.264 275.547 101.272C275.547 100.279 274.672 99.475 273.594 99.475C272.515 99.475 271.641 100.279 271.641 101.272C271.641 102.264 272.515 103.069 273.594 103.069Z" fill="white"/>
<path d="M279.844 103.069C280.922 103.069 281.797 102.264 281.797 101.272C281.797 100.279 280.922 99.475 279.844 99.475C278.765 99.475 277.891 100.279 277.891 101.272C277.891 102.264 278.765 103.069 279.844 103.069Z" fill="white"/>
<path d="M180.43 167.541H175.078V178.25H166.758V167.541H147.617V161.97L164.375 136.958H175.078V161.323H180.43V167.541ZM166.758 161.287V152.842C166.758 150.434 166.992 146.697 167.109 144.289H166.875C165.781 146.481 164.57 148.745 163.281 151.009L156.289 161.287H166.758Z" fill="#C07B92"/>
<path d="M184.805 157.442C184.805 143.139 190.859 136.167 200.039 136.167C209.141 136.167 215.234 143.211 215.234 157.442C215.234 171.673 209.18 179.041 200.039 179.041C190.859 179.041 184.805 171.673 184.805 157.442ZM206.758 157.442C206.758 145.87 203.828 142.528 200 142.528C196.133 142.528 193.203 145.87 193.203 157.442C193.203 169.05 196.133 172.644 200 172.644C203.867 172.608 206.758 169.05 206.758 157.442Z" fill="#C07B92"/>
<path d="M251.953 167.541H246.602V178.25H238.281V167.541H219.141V161.97L235.898 136.958H246.602V161.323H251.953V167.541ZM238.281 161.287V152.842C238.281 150.434 238.516 146.697 238.633 144.289H238.398C237.305 146.481 236.094 148.745 234.805 151.009L227.813 161.287H238.281Z" fill="#C07B92"/>
<path d="M180.352 165.241H175V175.95H166.68V165.241H147.539V159.67L164.297 134.658H175V159.023H180.352V165.241ZM166.68 158.987V150.542C166.68 148.134 166.914 144.397 167.031 141.989H166.797C165.703 144.181 164.492 146.445 163.203 148.709L156.25 158.987H166.68Z" fill="white"/>
<path d="M184.727 155.106C184.727 140.803 190.781 133.831 199.961 133.831C209.062 133.831 215.156 140.875 215.156 155.106C215.156 169.337 209.102 176.705 199.961 176.705C190.781 176.741 184.727 169.373 184.727 155.106ZM206.68 155.106C206.68 143.534 203.75 140.192 199.922 140.192C196.055 140.192 193.125 143.534 193.125 155.106C193.125 166.714 196.055 170.308 199.922 170.308C203.789 170.308 206.68 166.75 206.68 155.106Z" fill="white"/>
<path d="M251.875 165.241H246.523V175.95H238.203V165.241H219.062V159.67L235.82 134.658H246.523V159.023H251.875V165.241ZM238.203 158.987V150.542C238.203 148.134 238.438 144.397 238.555 141.989H238.32C237.227 144.181 236.016 146.445 234.727 148.709L227.734 158.987H238.203Z" fill="white"/>
<path d="M248.711 131.172C248.281 131.028 247.852 131.244 247.695 131.639C247.539 132.034 247.734 132.43 248.125 132.573C248.555 132.717 248.984 132.502 249.141 132.106C249.336 131.711 249.141 131.316 248.711 131.172Z" fill="#C07B92"/>
<path d="M251.641 128.8C251.992 127.866 251.484 127.183 250.547 126.859C249.844 126.644 249.18 126.752 248.594 127.039L249.023 127.794C249.375 127.65 249.727 127.578 250.078 127.686C250.508 127.83 250.664 128.153 250.508 128.512C250.234 129.195 248.711 129.231 248.438 130.453L249.453 130.777C249.727 129.734 251.25 129.842 251.641 128.8Z" fill="#C07B92"/>
<path d="M256.758 131.675C256.367 131.1 255.742 130.812 255.078 130.741L254.922 131.567C255.312 131.639 255.625 131.747 255.82 132.034C256.055 132.358 255.977 132.717 255.625 132.933C254.961 133.328 253.711 132.502 252.695 133.364L253.281 134.191C254.219 133.508 255.352 134.406 256.367 133.831C257.266 133.292 257.305 132.466 256.758 131.675Z" fill="#C07B92"/>
<path d="M251.367 133.939C250.977 134.155 250.859 134.586 251.094 134.945C251.328 135.305 251.797 135.377 252.188 135.125C252.578 134.909 252.695 134.478 252.422 134.119C252.227 133.795 251.758 133.723 251.367 133.939Z" fill="#C07B92"/>
<path d="M243.008 130.848C242.578 130.92 242.344 131.316 242.422 131.747C242.539 132.142 242.93 132.394 243.359 132.322C243.789 132.25 244.023 131.855 243.945 131.423C243.828 131.028 243.437 130.777 243.008 130.848Z" fill="#C07B92"/>
<path d="M242.031 126.32C241.328 126.464 240.82 126.895 240.469 127.434L241.289 127.866C241.484 127.578 241.758 127.327 242.109 127.255C242.539 127.183 242.852 127.362 242.969 127.722C243.164 128.441 241.875 129.231 242.344 130.417L243.398 130.202C243.008 129.159 244.375 128.512 244.102 127.434C243.867 126.428 243.008 126.105 242.031 126.32Z" fill="#C07B92"/>
<path d="M248.711 130.705C248.281 130.561 247.852 130.777 247.695 131.172C247.539 131.567 247.734 131.963 248.125 132.106C248.555 132.25 248.984 132.034 249.141 131.639C249.336 131.28 249.141 130.848 248.711 130.705Z" fill="#EFBB81"/>
<path d="M251.641 128.369C251.992 127.434 251.484 126.752 250.547 126.428C249.844 126.213 249.18 126.32 248.594 126.608L249.023 127.363C249.375 127.219 249.727 127.147 250.078 127.255C250.508 127.398 250.664 127.722 250.508 128.081C250.234 128.764 248.711 128.8 248.438 130.022L249.453 130.345C249.727 129.267 251.25 129.375 251.641 128.369Z" fill="#EFBB81"/>
<path d="M256.758 131.244C256.367 130.669 255.742 130.381 255.078 130.309L254.922 131.136C255.312 131.208 255.625 131.316 255.82 131.603C256.055 131.927 255.977 132.286 255.625 132.502C254.961 132.897 253.711 132.07 252.695 132.933L253.281 133.759C254.219 133.077 255.352 133.975 256.367 133.4C257.266 132.825 257.305 131.998 256.758 131.244Z" fill="#EFBB81"/>
<path d="M251.367 133.472C250.977 133.688 250.859 134.119 251.094 134.478C251.328 134.838 251.797 134.909 252.188 134.658C252.578 134.442 252.695 134.011 252.422 133.652C252.227 133.328 251.758 133.256 251.367 133.472Z" fill="#EFBB81"/>
<path d="M243.008 130.381C242.578 130.453 242.344 130.848 242.422 131.28C242.539 131.675 242.93 131.927 243.359 131.855C243.789 131.783 244.023 131.388 243.945 130.956C243.828 130.561 243.437 130.309 243.008 130.381Z" fill="#EFBB81"/>
<path d="M242.031 125.853C241.328 125.997 240.82 126.428 240.469 126.967L241.289 127.398C241.484 127.111 241.758 126.859 242.109 126.787C242.539 126.716 242.852 126.895 242.969 127.255C243.164 127.973 241.875 128.764 242.344 129.95L243.398 129.734C243.008 128.692 244.375 128.045 244.102 126.967C243.867 125.961 243.008 125.638 242.031 125.853Z" fill="#EFBB81"/>
<path d="M214.648 207.144H184.922C184.492 207.144 184.141 206.82 184.141 206.425V191.295C184.141 190.9 184.492 190.577 184.922 190.577H214.648C215.078 190.577 215.43 190.9 215.43 191.295V206.425C215.43 206.82 215.078 207.144 214.648 207.144Z" fill="#353535"/>
<path d="M214.648 191.691H184.961V206.066H214.648V191.691Z" fill="white"/>
<path d="M198.711 201.214H202.227V206.748H198.398L198.711 201.214Z" fill="#FDCACA"/>
<path d="M195.937 197.836C195.937 197.836 195 197.728 194.922 198.303C194.805 198.878 195.117 200.1 195.352 200.28C195.742 200.675 196.602 199.92 196.602 199.92L195.937 197.836Z" fill="#FDCACA"/>
<path d="M203.32 199.956C203.32 199.956 204.336 200.531 204.766 200.244C205.195 199.956 205.469 199.022 205.469 198.627C205.469 198.231 205.586 197.872 205.039 197.872C204.492 197.872 204.219 197.764 204.102 197.872C203.984 197.98 203.32 199.956 203.32 199.956Z" fill="#FDCACA"/>
<path d="M191.68 222.022C191.68 222.022 186.914 219.83 185.078 221.087C183.203 222.309 182.812 222.705 182.617 223.459C182.422 224.214 184.687 229.641 185.508 230.575C186.328 231.509 188.398 233.63 188.828 234.959C189.258 236.289 190.703 240.566 192.969 240.853C195.234 241.141 204.609 242.362 206.68 241.32C208.75 240.278 209.883 238.769 210.195 238.194C210.508 237.619 210.703 236.217 211.641 234.959C212.578 233.737 214.414 231.437 214.961 230.323C215.469 229.173 216.406 226.155 216.406 225.4C216.406 224.645 214.844 222.561 214.258 222.166C213.633 221.77 210.742 223.1 210.352 223.675C209.961 224.25 191.68 224.25 191.68 224.25V222.022Z" fill="#464646"/>
<path d="M205.625 189.355C203.906 186.767 200.508 189.498 200.273 189.714C200.039 189.93 198.867 188.852 196.211 190.181C194.414 191.08 194.453 191.655 194.219 194.602C193.984 197.548 195.43 198.052 195.43 198.052C195.43 198.052 195.625 198.052 195.938 198.087C195.938 198.698 195.938 199.381 195.977 199.848C195.977 199.848 196.133 201.537 197.461 202.472C198.438 203.119 199.023 203.298 199.883 203.37C201.055 203.442 202.461 203.119 203.438 201.717C203.711 201.322 203.789 200.387 203.789 200.387L204.336 197.8C205.625 197.369 207.344 191.906 205.625 189.355Z" fill="#63393F"/>
<path d="M216.875 220.62C216.367 219.003 215 215.337 215 215.337C214.531 213.648 213.281 211.384 213.125 211.205C212.93 210.917 212.07 208.33 210.82 207.862C208.438 206.964 206.211 206.173 205.586 205.419C204.961 204.664 203.555 203.981 203.555 203.981C203.555 203.981 201.445 204.341 199.688 204.233C198.008 204.125 197.422 203.766 197.031 203.909C196.914 203.945 196.445 204.844 195.625 205.239C194.805 205.634 193.984 205.059 188.594 208.366C188.594 208.366 187.266 208.833 186.211 211.672C185.937 212.462 185.781 213.037 185.664 213.433C185.664 213.433 183.906 218.716 183.398 220.297C183.125 221.123 183.437 221.626 183.789 221.914C184.102 221.662 184.531 221.375 185.039 221.051C186.367 220.189 189.102 221.016 190.625 221.591C190.625 222.992 191.133 224.717 189.805 227.233C188.477 229.784 189.375 235.858 190.625 237.403C191.875 238.912 193.633 240.242 194.023 240.242C194.023 240.242 202.266 241.176 204.844 240.637C207.422 240.062 209.375 236.073 209.687 235.498C210 234.923 211.836 231.797 211.133 230.072C210.43 228.347 209.18 227.592 209.18 227.592C209.18 227.592 209.375 225.831 209.57 223.747C209.922 223.711 210.156 223.639 210.195 223.603C210.625 223.028 213.516 221.698 214.102 222.094C214.297 222.201 214.531 222.453 214.844 222.812L215.742 222.597C215.781 222.597 217.383 222.237 216.875 220.62ZM189.883 217.242C190 217.673 190.352 218.895 190.508 220.117L188.945 219.362L189.883 217.242ZM210 220.333C210.156 218.787 210.273 217.53 210.273 217.386C210.273 217.314 210.273 217.278 210.313 217.278L211.367 219.686L210 220.333Z" fill="#DBEEFE"/>
<path d="M200.117 205.598C200.117 205.598 202.383 205.634 203.32 205.383C204.258 205.131 204.844 204.736 204.844 204.736L203.594 204.017C203.594 204.017 201.797 204.305 200.391 204.269C198.984 204.269 197.07 203.766 197.07 203.837C197.07 203.909 196.016 204.952 196.016 204.952C196.016 204.952 198.75 205.562 200.117 205.598Z" fill="#B9D8ED"/>
<path d="M188.789 221.878L190.742 224.034V223.459L190.703 222.561L188.789 221.878Z" fill="#173872"/>
<path d="M209.531 224.933L210.703 224.214L209.453 225.651L209.531 224.933Z" fill="#173872"/>
<path d="M189.062 219.075L187.344 219.83L189.57 219.65L188.984 219.362L189.062 219.075Z" fill="#B9D8ED"/>
<path d="M211.094 219.075L212.656 219.866H210.898L211.328 219.65L211.094 219.075Z" fill="#B9D8ED"/>
<path d="M189.805 217.494L189.883 217.242L189.961 217.494L189.805 214.331V217.494Z" fill="#B9D8ED"/>
<path d="M210.234 217.709L210 213.145L210.508 217.817L210.273 217.278L210.234 217.709Z" fill="#B9D8ED"/>
<path d="M165.341 323.2H166.445V324.048C166.445 326.608 164.701 328.624 162.221 329.392L161.565 328.352C163.789 327.696 165.341 326.016 165.341 324.048V323.2ZM165.581 323.2H166.685V324.048C166.685 325.872 168.205 327.472 170.365 328.096L169.725 329.152C167.277 328.4 165.581 326.464 165.581 324.048V323.2ZM162.045 322.8H169.981V323.904H162.045V322.8ZM165.357 328.752H166.685V332.048H165.357V328.752ZM171.725 321.408H173.053V335.904H171.725V321.408ZM161.533 332.832L161.341 331.728C163.981 331.728 167.629 331.712 170.781 331.232L170.893 332.208C167.645 332.816 164.109 332.832 161.533 332.832ZM181.851 326.48H183.163V329.184H181.851V326.48ZM181.835 321.648H182.987V322.288C182.987 324.896 180.219 326.752 177.275 327.232L176.763 326.176C179.355 325.824 181.835 324.224 181.835 322.288V321.648ZM182.043 321.648H183.179V322.288C183.179 324.224 185.675 325.824 188.251 326.176L187.755 327.232C184.827 326.736 182.043 324.896 182.043 322.288V321.648ZM175.979 328.608H189.051V329.664H175.979V328.608ZM182.507 330.864C185.611 330.864 187.467 331.76 187.467 333.36C187.467 334.976 185.611 335.856 182.507 335.856C179.403 335.856 177.547 334.976 177.547 333.36C177.547 331.76 179.403 330.864 182.507 330.864ZM182.507 331.888C180.235 331.888 178.891 332.416 178.891 333.36C178.891 334.304 180.235 334.832 182.507 334.832C184.795 334.832 186.123 334.304 186.123 333.36C186.123 332.416 184.795 331.888 182.507 331.888ZM200.602 321.424H201.93V329.824H200.602V321.424ZM201.354 325.104H204.074V326.224H201.354V325.104ZM192.842 330.464H194.138V332H200.618V330.464H201.93V335.696H192.842V330.464ZM194.138 333.024V334.624H200.618V333.024H194.138ZM190.746 322.896H199.29V323.984H190.746V322.896ZM195.018 324.64C197.082 324.64 198.474 325.648 198.474 327.184C198.474 328.72 197.082 329.728 195.018 329.728C192.938 329.728 191.546 328.72 191.546 327.184C191.546 325.648 192.938 324.64 195.018 324.64ZM195.018 325.648C193.69 325.648 192.81 326.256 192.81 327.184C192.81 328.112 193.69 328.72 195.018 328.72C196.314 328.72 197.21 328.112 197.21 327.184C197.21 326.256 196.314 325.648 195.018 325.648ZM194.346 321.28H195.674V323.488H194.346V321.28ZM215.945 321.424H217.273V335.888H215.945V321.424ZM206.345 322.832H207.657V331.792H206.345V322.832ZM206.345 331.008H207.529C209.721 331.008 212.009 330.848 214.457 330.336L214.617 331.472C212.105 331.984 209.817 332.16 207.529 332.16H206.345V331.008ZM229.928 321.408H231.272V335.904H229.928V321.408ZM230.952 327.12H233.64V328.24H230.952V327.12ZM220.76 331.184H221.896C224.568 331.184 226.44 331.088 228.6 330.688L228.744 331.808C226.52 332.224 224.616 332.304 221.896 332.304H220.76V331.184ZM220.76 322.816H227.48V323.904H222.072V331.68H220.76V322.816ZM236.278 334.864C235.702 334.864 235.238 334.4 235.238 333.744C235.238 333.072 235.702 332.624 236.278 332.624C236.87 332.624 237.35 333.072 237.35 333.744C237.35 334.4 236.87 334.864 236.278 334.864ZM95.2133 349.888H102.381V350.976H95.2133V349.888ZM98.7973 351.936C100.605 351.936 101.917 353.296 101.917 355.248C101.917 357.184 100.605 358.544 98.7973 358.544C97.0053 358.544 95.6933 357.184 95.6933 355.248C95.6933 353.296 97.0053 351.936 98.7973 351.936ZM98.7973 353.072C97.6933 353.072 96.8933 353.968 96.8933 355.248C96.8933 356.528 97.6933 357.424 98.7973 357.424C99.9173 357.424 100.733 356.528 100.733 355.248C100.733 353.968 99.9173 353.072 98.7973 353.072ZM106.205 347.424H107.485V361.888H106.205V347.424ZM103.901 353.504H106.637V354.608H103.901V353.504ZM103.117 347.744H104.365V361.184H103.117V347.744ZM98.1573 347.84H99.4693V350.56H98.1573V347.84ZM119.868 347.424H121.196V356.016H119.868V347.424ZM120.812 351.184H123.324V352.288H120.812V351.184ZM116.572 356.32C119.5 356.32 121.324 357.36 121.324 359.104C121.324 360.848 119.5 361.872 116.572 361.872C113.644 361.872 111.82 360.848 111.82 359.104C111.82 357.36 113.644 356.32 116.572 356.32ZM116.572 357.408C114.428 357.408 113.116 358.016 113.116 359.104C113.116 360.16 114.428 360.784 116.572 360.784C118.716 360.784 120.028 360.16 120.028 359.104C120.028 358.016 118.716 357.408 116.572 357.408ZM110.604 353.792H111.724C114.716 353.792 116.396 353.696 118.332 353.296L118.492 354.384C116.492 354.784 114.78 354.88 111.724 354.88H110.604V353.792ZM110.604 348.528H116.988V349.616H111.916V354.496H110.604V348.528ZM139.333 347.424H140.613V361.888H139.333V347.424ZM134.565 352.928H136.965V354.096H134.565V352.928ZM136.533 347.776H137.797V361.136H136.533V347.776ZM128.389 349.248H134.997V350.336H128.389V349.248ZM128.261 358.336L128.101 357.216C129.973 357.216 133.109 357.152 135.301 356.864L135.397 357.84C133.141 358.272 130.117 358.336 128.261 358.336ZM129.573 349.952H130.789V357.52H129.573V349.952ZM132.581 349.952H133.797V357.52H132.581V349.952ZM153.476 347.408H154.804V361.904H153.476V347.408ZM147.172 348.528C149.316 348.528 150.852 350.496 150.852 353.568C150.852 356.656 149.316 358.624 147.172 358.624C145.044 358.624 143.508 356.656 143.508 353.568C143.508 350.496 145.044 348.528 147.172 348.528ZM147.172 349.728C145.764 349.728 144.772 351.232 144.772 353.568C144.772 355.92 145.764 357.456 147.172 357.456C148.596 357.456 149.572 355.92 149.572 353.568C149.572 351.232 148.596 349.728 147.172 349.728ZM161.522 349.488H162.594V351.84C162.594 354.896 160.754 357.968 158.45 359.104L157.682 358.048C159.778 357.056 161.522 354.336 161.522 351.84V349.488ZM161.778 349.488H162.85V351.84C162.85 354.288 164.594 356.784 166.722 357.696L165.97 358.752C163.634 357.664 161.778 354.848 161.778 351.84V349.488ZM158.162 348.896H166.242V350.016H158.162V348.896ZM168.194 347.424H169.522V361.888H168.194V347.424ZM172.401 354.144H185.521V355.152H172.401V354.144ZM173.953 356.32H183.873V359.408H175.313V361.104H174.001V358.496H182.577V357.264H173.953V356.32ZM174.001 360.752H184.337V361.712H174.001V360.752ZM174.065 347.84H183.825V350.848H175.409V352.416H174.097V349.952H182.529V348.784H174.065V347.84ZM174.097 352.096H184.097V353.056H174.097V352.096ZM194.314 349.808H195.402V350.432C195.402 352.896 193.77 354.896 191.338 355.664L190.714 354.624C192.858 353.968 194.314 352.32 194.314 350.432V349.808ZM194.554 349.808H195.642V350.432C195.642 352.16 197.05 353.728 199.178 354.352L198.554 355.376C196.138 354.656 194.554 352.736 194.554 350.432V349.808ZM191.114 349.104H198.826V350.176H191.114V349.104ZM194.314 347.36H195.642V349.552H194.314V347.36ZM200.602 347.424H201.93V355.824H200.602V347.424ZM201.562 350.992H204.074V352.096H201.562V350.992ZM196.746 357.024H197.882V357.408C197.882 359.68 195.482 361.36 192.65 361.84L192.138 360.816C194.634 360.432 196.746 359.024 196.746 357.408V357.024ZM197.002 357.024H198.138V357.408C198.138 358.992 200.282 360.432 202.73 360.832L202.234 361.856C199.402 361.376 197.002 359.632 197.002 357.408V357.024ZM192.698 356.608H202.186V357.68H192.698V356.608ZM211.961 347.664C215.145 347.664 217.049 348.56 217.049 350.176C217.049 351.792 215.145 352.688 211.961 352.688C208.761 352.688 206.873 351.792 206.873 350.176C206.873 348.56 208.761 347.664 211.961 347.664ZM211.961 348.672C209.593 348.672 208.233 349.216 208.233 350.176C208.233 351.136 209.593 351.68 211.961 351.68C214.313 351.68 215.673 351.136 215.673 350.176C215.673 349.216 214.313 348.672 211.961 348.672ZM205.417 353.648H218.489V354.72H205.417V353.648ZM207.001 355.952H216.825V359.216H208.345V360.976H207.033V358.256H215.513V356.976H207.001V355.952ZM207.033 360.688H217.257V361.728H207.033V360.688ZM229.57 347.936H230.738V348.736C230.738 351.504 227.922 353.488 224.914 354L224.386 352.928C227.026 352.528 229.57 350.8 229.57 348.736V347.936ZM229.81 347.936H230.962V348.736C230.962 350.752 233.538 352.528 236.146 352.928L235.618 354C232.642 353.488 229.81 351.472 229.81 348.736V347.936ZM229.57 356.384H230.882V361.888H229.57V356.384ZM223.73 355.568H236.802V356.672H223.73V355.568ZM243.675 355.904H244.923V357.712H247.451V355.904H248.683V361.696H243.675V355.904ZM244.923 358.704V360.656H247.451V358.704H244.923ZM251.483 355.824H252.507V357.024C252.507 358.992 251.515 360.976 249.515 361.824L248.843 360.816C250.587 360.08 251.483 358.496 251.483 357.024V355.824ZM251.755 355.824H252.779V357.024C252.779 358.576 253.675 360.144 255.419 360.816L254.747 361.824C252.731 360.992 251.755 359.072 251.755 357.024V355.824ZM249.291 350.816H253.179V351.92H249.291V350.816ZM245.963 348.064C248.123 348.064 249.691 349.408 249.691 351.392C249.691 353.36 248.123 354.72 245.963 354.72C243.803 354.72 242.235 353.36 242.235 351.392C242.235 349.408 243.803 348.064 245.963 348.064ZM245.963 349.168C244.539 349.168 243.515 350.08 243.515 351.392C243.515 352.688 244.539 353.616 245.963 353.616C247.387 353.616 248.411 352.688 248.411 351.392C248.411 350.08 247.387 349.168 245.963 349.168ZM252.587 347.424H253.915V355.088H252.587V347.424ZM258.393 356.096H259.705V357.776H266.777V356.096H268.105V361.696H258.393V356.096ZM259.705 358.8V360.624H266.777V358.8H259.705ZM256.729 354.016H269.801V355.088H256.729V354.016ZM262.601 347.584H263.737V348.224C263.737 350.736 260.937 352.544 257.961 352.992L257.481 351.952C260.089 351.6 262.601 350.048 262.601 348.224V347.584ZM262.809 347.584H263.945V348.224C263.945 350.016 266.489 351.6 269.065 351.952L268.569 352.992C265.625 352.544 262.809 350.704 262.809 348.224V347.584ZM281.976 347.424H283.304V361.888H281.976V347.424ZM272.376 348.832H273.688V357.792H272.376V348.832ZM272.376 357.008H273.56C275.752 357.008 278.04 356.848 280.488 356.336L280.648 357.472C278.136 357.984 275.848 358.16 273.56 358.16H272.376V357.008ZM295.959 347.408H297.303V361.904H295.959V347.408ZM296.983 353.12H299.671V354.24H296.983V353.12ZM286.791 357.184H287.927C290.599 357.184 292.471 357.088 294.631 356.688L294.775 357.808C292.551 358.224 290.647 358.304 287.927 358.304H286.791V357.184ZM286.791 348.816H293.511V349.904H288.103V357.68H286.791V348.816ZM302.31 360.864C301.734 360.864 301.27 360.4 301.27 359.744C301.27 359.072 301.734 358.624 302.31 358.624C302.902 358.624 303.382 359.072 303.382 359.744C303.382 360.4 302.902 360.864 302.31 360.864Z" fill="black"/>
<defs>
<linearGradient id="paint0_linear_258_1772" x1="196.584" y1="223.622" x2="199.349" y2="270.98" gradientUnits="userSpaceOnUse">
<stop stop-color="#F88585"/>
<stop offset="0.4022" stop-color="#FDCACA"/>
<stop offset="0.7939" stop-color="#EE8282"/>
</linearGradient>
<linearGradient id="paint1_linear_258_1772" x1="202.719" y1="222.549" x2="204.037" y2="245.12" gradientUnits="userSpaceOnUse">
<stop stop-color="#FFE4E1"/>
<stop offset="0.2484" stop-color="#FDCACA"/>
<stop offset="0.7939" stop-color="#F88585"/>
</linearGradient>
<linearGradient id="paint2_linear_258_1772" x1="290.405" y1="233.607" x2="277.492" y2="214.507" gradientUnits="userSpaceOnUse">
<stop stop-color="#EFBB81"/>
<stop offset="0.5011" stop-color="#F79E57"/>
<stop offset="1" stop-color="#FF7F2A"/>
</linearGradient>
<linearGradient id="paint3_linear_258_1772" x1="313.19" y1="247.094" x2="305.823" y2="236.197" gradientUnits="userSpaceOnUse">
<stop stop-color="#EFBB81"/>
<stop offset="0.5011" stop-color="#F79E57"/>
<stop offset="1" stop-color="#FF7F2A"/>
</linearGradient>
</defs>
</svg>
